<svg xmlns="http://www.w3.org/2000/svg" width="48" height="48"><path fill="#fff" d="M38.9 18.7V17c0-4-1.4-7.8-4-10.6S28.7 2 24.7 2h-1.4c-4 0-7.6 1.6-10.2 4.4-2.6 2.8-4 6.6-4 10.6v1.7c-3.1.2-5.6 2.8-5.6 6v2.6c0 3.3 2.7 6.1 6 6.1h3.4c.6 0 1.1-.5 1.1-1.1V19.8c0-.6-.5-1.1-1.1-1.1h-1.6V17c0-7.3 5.2-12.8 12-12.8h1.4c6.9 0 12 5.5 12 12.8v1.7h-1.6c-.6 0-1.1.5-1.1 1.1v12.5c0 .6.5 1.1 1.1 1.1h1.5c-.4 5.8-4.4 7.1-6.2 7.4-.5-1.6-2-2.7-3.7-2.7H24c-2.1 0-3.9 1.7-3.9 3.9 0 2.1 1.7 3.9 3.9 3.9h2.8c1.8 0 3.3-1.2 3.7-2.9.9-.1 2.3-.5 3.7-1.3 2-1.2 4.3-3.6 4.7-8.4 3.1-.2 5.6-2.8 5.6-6v-2.6c0-3.1-2.5-5.8-5.6-6zM11.8 31.2H9.5c-2.1 0-3.8-1.7-3.8-3.8v-2.6c0-2.1 1.7-3.8 3.8-3.8h2.3v10.2zm15 12.6H24c-.9 0-1.7-.7-1.7-1.7 0-.9.7-1.7 1.7-1.7h2.8c.9 0 1.7.7 1.7 1.7-.1.9-.8 1.7-1.7 1.7zm15.5-16.4c0 2.1-1.7 3.8-3.8 3.8h-2.3V20.9h2.3c2.1 0 3.8 1.7 3.8 3.8v2.7z"/></svg>