<svg xmlns="http://www.w3.org/2000/svg" width="48" height="48"><path fill="#fff" d="M35.2 15.8V7.2c0-.5-.2-.9-.6-1.1-.4-.2-.9-.2-1.2.1-8.6 5.9-13.5 6.7-16.9 6.7H6.9C3.1 12.9 0 16 0 19.8v2.5c0 3.8 3.1 6.9 6.9 6.9h4.6l5 12.1c.2.5.6.7 1.1.7.2 0 .3 0 .5-.1.6-.3.9-1 .7-1.6L14 29.2h2.4c11.6 0 16.4 6.2 16.6 6.4.2.3.6.5 1 .5.1 0 .3 0 .4-.1.5-.2.8-.6.8-1.1v-8.6c2.4-.5 4.2-2.7 4.2-5.2 0-2.6-1.8-4.7-4.2-5.3zm-24.1 11H6.9c-2.5 0-4.5-2-4.5-4.5v-2.5c0-2.5 2-4.5 4.5-4.5h4.2v11.5zM32.8 32c-2.7-2.2-7.9-5.3-16.4-5.3h-3V15.3h3c3.4 0 8.3-.7 16.4-5.9V32zm2.4-8.2v-5.4c1 .5 1.8 1.5 1.8 2.7 0 1.2-.8 2.2-1.8 2.7zm11.6-3.9h-4.7c-.7 0-1.2.5-1.2 1.2s.5 1.2 1.2 1.2h4.7c.7 0 1.2-.5 1.2-1.2s-.5-1.2-1.2-1.2zm-5.2-1.8c.1 0 .3 0 .4-.1l4.5-1.8c.6-.2.9-.9.7-1.6-.2-.6-.9-.9-1.6-.7l-4.5 1.8c-.6.2-.9.9-.7 1.5.2.6.7.9 1.2.9zm4.9 7.8L42 24.1c-.6-.2-1.3.1-1.6.7-.2.6.1 1.3.7 1.6l4.5 1.8c.1.1.3.1.4.1.5 0 .9-.3 1.1-.8.4-.7.1-1.4-.6-1.6z"/></svg>