<svg xmlns="http://www.w3.org/2000/svg" viewBox="0 0 20 20"><path d="M13.4 16.2c-.5 0-1 .2-1.4.6-.4.4-.6.8-.6 1.3 0 1 .9 1.9 1.9 1.9 1 0 1.9-.9 1.9-1.9s-.8-1.9-1.8-1.9zm0 2.5c-.3 0-.5-.2-.5-.6 0-.3.3-.6.5-.6.3 0 .5.3.5.6s-.2.6-.5.6zm-9.1-2.5c-.5 0-1 .2-1.4.6-.4.4-.6.8-.6 1.3 0 1 .9 1.9 1.9 1.9.5 0 1-.2 1.4-.6.4-.4.6-.8.6-1.3 0-1-.8-1.9-1.9-1.9zm0 2.5c-.3 0-.5-.2-.5-.6 0-.3.3-.6.5-.6.3 0 .5.2.5.6.1.3-.2.6-.5.6zM19.3 0h-2.2l-.7 2.5H.9c-.3 0-.5.1-.7.3-.2.3-.2.5-.2.8l2.7 7.8c-1 .3-1.7 1.2-1.7 2.3C1 15 2.1 16 3.4 16h11.1c.4 0 .7-.3.7-.6 0-.4-.3-.6-.7-.6H3.4c-.6 0-1-.5-1-1.1 0-.6.5-1.1 1-1.1h11.8l3-11.3h1.1c.4 0 .7-.3.7-.6 0-.4-.3-.7-.7-.7zm-5.1 11.3h-10L1.6 3.8h14.5l-1.9 7.5zm-8.3-.9c.4 0 .7-.3.7-.7V5.9c0-.4-.3-.7-.7-.7-.4 0-.7.3-.7.7v3.8c0 .4.3.7.7.7zm3 0c.4 0 .7-.3.7-.7V5.9c0-.4-.3-.7-.7-.7-.4 0-.7.3-.7.7v3.8c0 .4.3.7.7.7zm3 0c.4 0 .7-.3.7-.7V5.9c0-.4-.3-.7-.7-.7-.4 0-.7.3-.7.7v3.8c0 .4.3.7.7.7z"/></svg>