<svg xmlns="http://www.w3.org/2000/svg" viewBox="0 0 43 43"><path d="M19.3 19.3c-1-4.1-4.8-7.2-9.2-7.2-5.2 0-9.4 4.2-9.4 9.4s4.2 9.4 9.4 9.4c4.6 0 8.4-3.2 9.2-7.5"/><path d="M16.1 19.2c-.9-2.4-3.3-4.1-6-4.1-3.5 0-6.4 2.9-6.4 6.4s2.9 6.4 6.4 6.4c2.5 0 4.7-1.5 5.8-3.6"/><path d="M10.2 17.9c-2 0-3.6 1.6-3.6 3.6s1.6 3.6 3.6 3.6"/><path d="M10.2 17.9c2.8 0 3.2 1.4 8.3 1.4 5.7 0 13.7-3.4 20.5-3.4 3.4 0 3.5 3.6 3.1 6-.1.4-.3.8-.7.9-.4.2-.8.1-1.2-.1-1.3-.9-3.5-2-7.1-2-7.7 0-16.5 4.4-23 4.4m-1.7-3.6s0 1.7 1.8 1.7"/></svg>