<svg xmlns="http://www.w3.org/2000/svg" viewBox="0 0 43 43"><path d="M39 27.3c0-4.9-3.9-9-8.8-9.3l-.5-5.4c0-.9-.8-1.6-1.7-1.6h-1.9V6.9c0-1.6-1.3-2.9-2.9-2.9H12.7c-1.6 0-2.9 1.3-2.9 2.9V11H7.9c-.9 0-1.7.7-1.7 1.6L4 37.1c-.1 1 .6 1.8 1.6 1.9h24.5c1 0 1.8-.8 1.8-1.8v-.1l-.1-.7c4.2-1 7.2-4.7 7.2-9.1zM10.9 6.9c0-1 .8-1.8 1.8-1.8h10.5c1 0 1.8.8 1.8 1.8V11H11V6.9zm19.8 30.3c0 .3-.2.6-.5.6H5.8c-.3 0-.6-.3-.6-.6l2.1-24.6c0-.3.3-.5.6-.5h1.9v5.3H11v-5.3h14v5.3h1.2v-5.3H28c.3 0 .6.2.6.5L29 18c-5.2.3-9.1 4.8-8.8 9.9s4.8 9.1 9.9 8.8h.5l.1.5zm-1.1-1.7c-4.5 0-8.2-3.7-8.2-8.2s3.7-8.2 8.2-8.2 8.2 3.7 8.2 8.2c0 4.6-3.6 8.2-8.2 8.2z"/><path d="M25.652 32.93l6.997-11.662 1.03.617-6.998 11.662zM27.9 25c0-1.3-1-2.3-2.3-2.3s-2.3 1-2.3 2.3 1 2.3 2.3 2.3 2.3-1 2.3-2.3zm-2.4 1.2c-.6 0-1.2-.5-1.2-1.2s.5-1.2 1.2-1.2 1.2.5 1.2 1.2-.5 1.2-1.2 1.2zm8.2 1.1c-1.3 0-2.3 1-2.3 2.3 0 1.3 1 2.3 2.3 2.3 1.3 0 2.3-1 2.3-2.3.1-1.2-1-2.3-2.3-2.3zm0 3.6c-.6 0-1.2-.5-1.2-1.2s.5-1.2 1.2-1.2c.6 0 1.2.5 1.2 1.2s-.5 1.2-1.2 1.2z"/></svg>