<svg xmlns="http://www.w3.org/2000/svg" viewBox="0 0 43 43"><path d="M20.7 35.2H31c.3 0 .5-.2.5-.5V10.3c0-.3-.2-.5-.5-.5H20.7c-.3 0-.5.2-.5.5v24.5c0 .2.3.4.5.4zm9.8-6.9v.8h-9.3v-.8h9.3zm-9.3-1v-9.8h9.3v9.8h-9.3zm9.3-10.7h-9.3v-.8h9.3v.8zm-9.3 17.7v-4.2h9.3v4.2h-9.3zm9.3-23.6v4.1h-9.3v-4.1h9.3z"/><path d="M39 4.3H5.5c-.3 0-.5.2-.5.5v2.9c0 .3.2.5.5.5h1.1v29.6H4c-.3 0-.5.2-.5.5s.2.5.5.5h33.5c.3 0 .5-.2.5-.5s-.2-.5-.5-.5H34V8.2h5c.3 0 .5-.2.5-.5V4.8c0-.3-.2-.5-.5-.5zM7.5 8.2h1.4v29.6H7.5V8.2zm10.2 0v29.6H9.9V8.2h7.8zM33 37.8H18.7V8.2H33v29.6zm5.5-30.6H6v-2h32.5v2z"/></svg>