<svg xmlns="http://www.w3.org/2000/svg" viewBox="0 0 43 43"><path d="M26.5 24.8c.6.3 4.9 2.6 5.5 2.9.8.5 1.7.9 2.4 1.3.4.2.8.5 1.1.6.3.2.6.4.8.5.6.4 1.5.8 1.9 1.1.9.6 1.4 1.6 1.4 5.2v3.2H35M16.5 24.8c-.6.3-4.9 2.6-5.5 2.9-.8.5-1.7.9-2.4 1.3-.4.2-.8.5-1.1.6-.3.2-.6.4-.8.5-.6.4-1.5.8-1.9 1.1-.9.6-1.4 1.6-1.4 5.2v3.2H8"/><path d="M37.7 30.9c-2.9 0-2.7 4-2.7 5.4v6.1M5.3 30.9c2.9 0 2.7 4 2.7 5.4v6.1m31.3 0v-2.7M3.7 42.4v-2.7M30 11.6c.2.8.5 2.4.3 3.1M13 11.6c-.2.8-.5 2.4-.2 3.1m.1 3.8c.5 2.6 1.8 4.8 3.5 6.3.4.4.8.7 1.3 1 1.1.7 2.3 1 3.6 1 1.3 0 2.5-.4 3.6-1 .5-.3.9-.6 1.3-1 1.7-1.5 2.9-3.7 3.5-6.3"/><path d="M30 18.5c1 0 1.8-.9 1.8-1.9 0-.9-.7-1.7-1.6-1.9l-1.9-.5-.3-1.5m-15 5.8c-1 0-1.8-.9-1.8-1.9 0-.9.7-1.7 1.6-1.9l1.9-.5.3-1.5m15-1.5v.4m-17-.4v.4m0 0C13 3.8 12.4.5 21.5.5 30.7.5 30 3.8 30 11.6"/><path d="M15.6 9.5c.1-7.8 3.3-9 6-9s5.9 1.2 6 9M16.5 24.8c-2 4.8 1.9 7.7 5 7.7s7-2.9 5-7.7"/><path d="M29 26.1v7.4c0 .5-.4.9-.9.9H14.9c-.5 0-.9-.4-.9-.9v-7.4m18.3 16.4V27.9M10.7 42.5V27.9m21.6 3H29m-18.3 0H14m18.3 2.7H29m-18.3 0H14m15 3.7c0 2-1.6 3.6-3.6 3.6h-7.8c-2 0-3.6-1.6-3.6-3.6h15zm0 .3v4.9m-15-4.9v4.9m7.5-33.8c7.1 0 8.5 2.5 8.5 2.5l-2 1.6c-.6.5-1.3.6-2 .4-1.6-.4-3-.6-4.5-.6-1.8 0-3.5.2-5.6.9l-3-2.4c.1.1 1.5-2.4 8.6-2.4z"/></svg>