<svg xmlns="http://www.w3.org/2000/svg" viewBox="0 0 30 28" width="30" height="28">
	<path fill="#e22a1b" d="M28.8,2.4h-1.5C26.8,1,25.4,0,23.8,0s-3,1-3.5,2.4h-1.7C18,1,16.6,0,15,0c-1.6,0-3,1-3.5,2.4H9.8C9.3,1,7.9,0,6.3,0s-3,1-3.5,2.4H1.2C0.6,2.4,0,3,0,3.7v23.1C0,27.5,0.6,28,1.2,28h27.5c0.7,0,1.3-0.5,1.3-1.2V3.7C30,3,29.4,2.4,28.8,2.4z M2.5,4.9h1.3C4.4,4.9,5,4.3,5,3.7C5,3,5.6,2.4,6.3,2.4c0.7,0,1.2,0.5,1.2,1.2c0,0.7-0.6,1.2-1.2,1.2C5.6,4.9,5,5.4,5,6.1c0,0.7,0.6,1.2,1.3,1.2c1.6,0,3-1,3.5-2.4h2.7c0.7,0,1.2-0.5,1.2-1.2c0-0.7,0.6-1.2,1.3-1.2s1.3,0.5,1.3,1.2c0,0.7-0.6,1.2-1.3,1.2c-0.7,0-1.3,0.5-1.3,1.2c0,0.7,0.6,1.2,1.3,1.2c1.6,0,3-1,3.5-2.4h2.7c0.7,0,1.3-0.5,1.3-1.2c0-0.7,0.6-1.2,1.3-1.2C24.4,2.4,25,3,25,3.7c0,0.7-0.6,1.2-1.3,1.2c-0.7,0-1.3,0.5-1.3,1.2c0,0.7,0.6,1.2,1.3,1.2c1.6,0,3-1,3.5-2.4h0.2v3.7h-25V4.9z M27.5,25.6h-25V11h25V25.6z M7.5,17c0.7,0,1.3-0.5,1.3-1.2s-0.6-1.2-1.3-1.2s-1.2,0.5-1.2,1.2S6.8,17,7.5,17z M15,17c0.7,0,1.3-0.5,1.3-1.2s-0.6-1.2-1.3-1.2c-0.7,0-1.3,0.5-1.3,1.2S14.3,17,15,17z M22.5,17c0.7,0,1.3-0.5,1.3-1.2s-0.6-1.2-1.3-1.2c-0.7,0-1.3,0.5-1.3,1.2S21.8,17,22.5,17z M7.5,23.1c0.7,0,1.3-0.5,1.3-1.2c0-0.7-0.6-1.2-1.3-1.2s-1.2,0.5-1.2,1.2C6.3,22.6,6.8,23.1,7.5,23.1z M15,23.1c0.7,0,1.3-0.5,1.3-1.2c0-0.7-0.6-1.2-1.3-1.2c-0.7,0-1.3,0.5-1.3,1.2C13.7,22.6,14.3,23.1,15,23.1z M22.5,23.1c0.7,0,1.3-0.5,1.3-1.2c0-0.7-0.6-1.2-1.3-1.2c-0.7,0-1.3,0.5-1.3,1.2C21.3,22.6,21.8,23.1,22.5,23.1z"/>
</svg>
