<svg xmlns="http://www.w3.org/2000/svg" viewBox="0 0 33 33" width="33" height="33">
	<path fill="#e22a1b" d="M30.9,20.6c-1.5-1.5-3.5-2.2-5.5-2.1l-2-2L31.9,8C32.6,7.2,33,6.3,33,5.2s-0.4-2-1.1-2.7l-1.4-1.4C29.8,0.4,28.8,0,27.8,0c-1,0-2,0.4-2.7,1.1l-8.5,8.5l-2-2c0.1-2.1-0.6-4.1-2.1-5.5C10.1-0.1,6.8-0.6,4,0.8L2.8,1.4l4.5,4.5L5.9,7.3L1.4,2.8L0.8,4c-1.4,2.8-0.9,6.2,1.3,8.4c1.5,1.5,3.5,2.2,5.5,2.1l2,2l-7.4,7.4L0,33l9.1-2.3l7.4-7.4l2,2c-0.1,2.1,0.6,4.1,2.1,5.5c1.4,1.4,3.2,2.1,5.1,2.1c1.1,0,2.3-0.3,3.3-0.8l1.2-0.6l-4.5-4.5l1.4-1.4l4.5,4.5l0.6-1.2C33.6,26.2,33.1,22.9,30.9,20.6z M26.4,2.5c0.4-0.4,0.8-0.6,1.4-0.6c0.5,0,1,0.2,1.4,0.6l1.4,1.4c0.4,0.4,0.6,0.8,0.6,1.4c0,0.5-0.2,1-0.6,1.4l-1,1l-4.1-4.1L26.4,2.5z M24.1,4.8l4.1,4.1l-1.4,1.4l-4.1-4.1L24.1,4.8z M6.2,2.1c1.4-0.3,2.9,0,4.1,0.8L8.6,4.5L6.2,2.1z M8.4,12.5l-0.5,0.1c-1.6,0.2-3.2-0.4-4.4-1.5C2.2,9.7,1.7,7.9,2.1,6.2L5.9,10l5.7-5.7c0.7,1.1,1.1,2.4,0.9,3.7l-0.1,0.5l2.7,2.7L11,15.1L8.4,12.5z M21.3,7.6l1.4,1.4L5.9,25.7l-1.4-1.4L21.3,7.6z M2.7,30.3l1-4.1l3.1,3.1L2.7,30.3z M8.6,28.5l-1.4-1.4l16.8-16.8l1.4,1.4L8.6,28.5z M26.8,30.9c-1.4,0.3-2.9,0-4.1-0.8l1.6-1.6L26.8,30.9z M30.9,26.8L27.1,23l-5.7,5.7c-0.7-1.1-1.1-2.4-0.9-3.7l0.1-0.5L17.9,22l4.1-4.1l2.7,2.7l0.5-0.1c1.6-0.2,3.2,0.4,4.4,1.5C30.8,23.3,31.3,25.1,30.9,26.8z"/>
</svg>
