<svg xmlns="http://www.w3.org/2000/svg" viewBox="0 0 33 33" width="33" height="33">
	<path fill="#e22a1b" d="M32.7,25.9l-3.6-3.6c0,0,0,0,0,0c0,0,0,0,0,0l-5.5-5.5l9.1-9.1c0.4-0.4,0.4-1.2,0-1.6L27,0.3C26.8,0.1,26.5,0,26.2,0l0,0c0,0-0.1,0-0.1,0c-0.3,0-0.5,0.1-0.7,0.3L19.7,6c0,0,0,0,0,0l-3.4,3.4l-2-2c0,0,0,0,0,0s0,0,0,0l-3.6-3.6c0,0,0,0,0,0c0,0,0,0,0,0L7.2,0.3C6.9,0.1,6.6,0,6.3,0C6,0,5.8,0.1,5.5,0.3L0.3,5.5c-0.4,0.4-0.4,1.2,0,1.6l9.1,9.1l-9.1,9.1C0.1,25.6,0,25.9,0,26.2v5.7c0,0.3,0.1,0.6,0.3,0.8C0.5,32.9,0.8,33,1.1,33l5.7,0c0.3,0,0.6-0.1,0.8-0.3l9.1-9.1l9.1,9.1c0.2,0.2,0.5,0.3,0.8,0.3s0.6-0.1,0.8-0.3l5.2-5.2c0.2-0.2,0.3-0.5,0.3-0.8C33,26.4,32.9,26.1,32.7,25.9z M26.2,10.9l-4.1-4.1l4.1-4.1l4.1,4.1L26.2,10.9z M2.7,6.3l3.6-3.6l2,2L6.5,6.5c-0.4,0.4-0.4,1.2,0,1.6C6.7,8.3,7,8.4,7.3,8.4c0.3,0,0.6-0.1,0.8-0.3l1.8-1.8l2,2l-2.5,2.5c-0.4,0.4-0.4,1.2,0,1.6c0.2,0.2,0.5,0.3,0.8,0.3c0.3,0,0.6-0.1,0.8-0.3l2.5-2.5l1.2,1.2L11,14.7L2.7,6.3z M6.4,30.7l-4.1,0v-4.1L20.5,8.4l4.1,4.1L6.4,30.7z M26.7,30.3L18.3,22l3.6-3.6l1.2,1.2L20.6,22c-0.4,0.4-0.4,1.2,0,1.6c0.2,0.2,0.5,0.3,0.8,0.3c0.3,0,0.6-0.1,0.8-0.3l2.5-2.5l2,2l-1.8,1.8c-0.4,0.4-0.4,1.2,0,1.6c0.2,0.2,0.5,0.3,0.8,0.3s0.6-0.1,0.8-0.3l1.8-1.8l2,2L26.7,30.3z"/>
</svg>
