<svg xmlns="http://www.w3.org/2000/svg" width="57" height="52"><path fill="#c8e0d5" d="M56.672 37.16l-2.718-2.7a1.114 1.114 0 00-1.575 0 1.132 1.132 0 00.007 1.59l2.717 2.7a1.1 1.1 0 001.575 0 1.133 1.133 0 00-.006-1.59zm-5.487-5.47a1.1 1.1 0 00-1.575 0 1.121 1.121 0 000 1.58 1.106 1.106 0 001.576 0 1.12 1.12 0 00-.001-1.58zm-9.493 5.16L52.492 26a4.232 4.232 0 000-5.96 1.738 1.738 0 01-1.634-2.9 4.224 4.224 0 00-3.483-4.16 5.8 5.8 0 01-3.057-6.79 4.211 4.211 0 00-1.229-2.98 4.139 4.139 0 00-2.967-1.23 4.08 4.08 0 00-2 .51l-.108-.12A7.4 7.4 0 0032.592 0h-8.744a1.116 1.116 0 00-1.114 1.12v1.46a5.126 5.126 0 00.288 1.7 4.2 4.2 0 00-4.578.91 4.243 4.243 0 00-1.015 4.31 4.2 4.2 0 00-3.484 4.15 4.251 4.251 0 00.211 1.32 4.139 4.139 0 00-2.251 1.17 4.22 4.22 0 01-2.864 5.88 4.232 4.232 0 000 5.96l2.221 2.23L.326 41.19A1.119 1.119 0 001.9 42.78l11.043-11.09a4.241 4.241 0 002.074.55A4.15 4.15 0 0017.984 31a4.2 4.2 0 001.223-3.15c.056 0 .113.01.169.01a4.215 4.215 0 004.2-4.22v-.17a.948.948 0 00.168.01 4.2 4.2 0 004.2-4.21v-.17h.167a4.177 4.177 0 002.967-1.23 4.232 4.232 0 00.279-5.65l7.392-7.43a1.975 1.975 0 012.785 2.8l-1.09 1.09-3.955 3.97a1.119 1.119 0 001.575 1.59l3.954-3.97a1.95 1.95 0 012.785 0 1.977 1.977 0 010 2.79l-1.09 1.1-2.864 2.87a1.12 1.12 0 000 1.58 1.1 1.1 0 001.575 0l2.864-2.87a1.962 1.962 0 012.785 0 1.975 1.975 0 010 2.79l-1.5 1.51-1.369 1.37a1.12 1.12 0 000 1.58 1.1 1.1 0 001.575 0l1.369-1.37a1.966 1.966 0 012.784 0 1.989 1.989 0 010 2.8l-10.8 10.84A14.985 14.985 0 0129.98 39.7a1.161 1.161 0 00-.748.33l-9.979 10.06a1.12 1.12 0 000 1.58 1.1 1.1 0 001.575 0l7.34-7.4a10.386 10.386 0 006.287 1.63l5.744 5.77a1.119 1.119 0 001.575-1.59l-6.108-6.13a1.1 1.1 0 00-.878-.32l-.353.02a8.061 8.061 0 01-4.647-1.01l.716-.72a17.3 17.3 0 0011.188-5.07zm-25.285-7.43a1.962 1.962 0 01-2.785 0l-3.009-3.02a1.991 1.991 0 010-2.8 1.962 1.962 0 012.785 0l3.009 3.02a1.989 1.989 0 010 2.8zm4.36-4.38a1.968 1.968 0 01-2.785 0l-3.009-3.02-1.5-1.5a1.989 1.989 0 010-2.8 1.962 1.962 0 012.785 0l4.5 4.52a1.989 1.989 0 01.009 2.8zm4.359-4.38a1.968 1.968 0 01-2.785 0l-5.594-5.62a1.971 1.971 0 112.784-2.79l2.55 2.56 3.045 3.06a1.975 1.975 0 010 2.79zm4.36-4.37a1.968 1.968 0 01-2.785 0l-5.6-5.62a.017.017 0 010-.01l-1.088-1.09a1.979 1.979 0 010-2.79 1.962 1.962 0 012.785 0l6.685 6.71a1.987 1.987 0 01.003 2.8zm.293-5.67L26.72 7.55a5.394 5.394 0 001.067.11h.024l3.056-.01a1.12 1.12 0 000-2.24l-3.056.01h-.014a2.822 2.822 0 01-2.828-2.84v-.34h7.63a5.2 5.2 0 013.793 1.65l.045.05z"/></svg>