<svg xmlns="http://www.w3.org/2000/svg" width="52" height="63"><path fill="#133d52" d="M51.923 56.08l-8.289-20.14a1 1 0 10-1.846.77l7.493 18.21-6.835-2a1 1 0 00-1.153.48l-3.433 6.28-8.041-19.53a20.206 20.206 0 10-19.968-7.81L.077 56.08a1.018 1.018 0 00.178 1.06 1 1 0 001.023.29l8.064-2.35 4.05 7.4a1 1 0 00.875.52h.055a.993.993 0 00.868-.62l7.745-18.81a1.012 1.012 0 00-.541-1.32 1 1 0 00-1.3.55l-6.949 16.88-3.433-6.28a1 1 0 00-1.153-.48l-6.836 2 8.579-20.84a20.045 20.045 0 0014.7 6.43c.6 0 1.19-.03 1.775-.08l9.035 21.95a.993.993 0 00.868.62h.055a1 1 0 00.875-.52l4.05-7.4 8.064 2.35a1 1 0 001.023-.29 1.018 1.018 0 00.176-1.06zM7.866 20.26A18.134 18.134 0 1126 38.5 18.215 18.215 0 017.866 20.26zm29.679-3.78a1.008 1.008 0 00-.785-.68l-6.724-1.13-3.15-6.09a1 1 0 00-1.772 0l-3.151 6.09-6.723 1.13a1.008 1.008 0 00-.785.68 1.018 1.018 0 00.238 1.02l4.775 4.89-1 6.79a1.006 1.006 0 00.4.96.988.988 0 001.033.08l6.1-3.05 6.1 3.05a1.009 1.009 0 00.446.11 1.044 1.044 0 00.587-.19 1.006 1.006 0 00.4-.96l-1-6.79 4.775-4.89a1.018 1.018 0 00.236-1.02zm-6.788 4.86a1.007 1.007 0 00-.275.85l.8 5.37-4.832-2.42a1.04 1.04 0 00-.89 0l-4.832 2.42.8-5.37a1 1 0 00-.275-.85l-3.781-3.88 5.323-.89a1.02 1.02 0 00.72-.53l2.5-4.82 2.494 4.82a1.024 1.024 0 00.721.53l5.323.89zm10.378-.07a1 1 0 00-1.122.86 14.221 14.221 0 110-3.75.992.992 0 001.121.86 1 1 0 00.859-1.13 16.235 16.235 0 100 4.29 1 1 0 00-.858-1.13z"/></svg>