<svg xmlns="http://www.w3.org/2000/svg" width="35.22" height="34.87"><path fill="#e22a1b" d="M2.43 7.36a.634.634 0 00.42.31l2.16.54 7.51 7.45.96-.95-7.65-7.58a.683.683 0 00-.32-.18l-2.05-.51-1.94-3.35L3.13 1.5l3.39 1.92.51 2.03a.609.609 0 00.18.31l7.65 7.58.96-.94L8.3 4.95l-.54-2.13a.648.648 0 00-.32-.42L3.36.09a.694.694 0 00-.82.1L.21 2.51a.668.668 0 00-.12.8zm8.21 16.02l.96.95 12.97-12.85-.96-.95zM9.43 24.6a.671.671 0 00-.58-.32h-3.5a.671.671 0 00-.58.32l-1.75 2.89a.659.659 0 000 .69l1.75 2.89a.68.68 0 00.58.33h3.5a.68.68 0 00.58-.33l1.75-2.89a.659.659 0 000-.69zm.38 3.24l-1.34 2.22H5.73l-1.34-2.22 1.34-2.22h2.74zm24.02-1.06l-6.99-6.93a.688.688 0 00-.96 0l-.29.29a.587.587 0 01-.8 0 .568.568 0 010-.79l.3-.29a.689.689 0 000-.95l-1.28-1.26 2.96-2.93a6.69 6.69 0 001.34.13h.02a7.093 7.093 0 004.99-2.03 7.034 7.034 0 001.87-6.7.68.68 0 00-.82-.48.763.763 0 00-.32.17l-3.59 3.56-2.78-.92-.93-2.76 3.59-3.56a.664.664 0 000-.94.7.7 0 00-.31-.18 7.092 7.092 0 00-8.6 5.07 6.717 6.717 0 00-.08 3.07L8.44 20.94a6.69 6.69 0 00-1.34-.13 7.03 7.03 0 107.1 7.03 6.6 6.6 0 00-.14-1.33l2.96-2.93 1.27 1.26a.688.688 0 00.96 0l.29-.29a.587.587 0 01.8 0 .555.555 0 010 .79l-.29.29a.658.658 0 000 .95l6.96 6.89a4.829 4.829 0 006.79.03 4.726 4.726 0 00.03-6.72zm-11.98-2.01a1.884 1.884 0 00-.67-1.29 1.938 1.938 0 00-2.4-.05l-.81-.8 4.89-4.83.81.8a1.906 1.906 0 002.68 2.66l6.49 6.43c.05.05.09.09.14.15l-4.86 4.83c-.06-.05-.11-.1-.16-.14l-6.49-6.44a1.841 1.841 0 00.38-1.32zm4.08-11.9L12.84 25.83a.659.659 0 00-.17.63 5.641 5.641 0 01-.64 4.34 5.724 5.724 0 01-3.54 2.63 5.787 5.787 0 01-4.38-.63 5.711 5.711 0 011.53-10.48 6.13 6.13 0 011.42-.17 6.282 6.282 0 011.43.17.684.684 0 00.64-.17L22.37 9.03a.665.665 0 00.17-.63 5.665 5.665 0 014.12-6.89 5.963 5.963 0 011.57-.18L25.3 4.24a.664.664 0 00-.17.68l1.17 3.47a.666.666 0 00.43.42l3.5 1.16a.677.677 0 00.69-.16l2.93-2.9v.11a5.685 5.685 0 01-5.68 5.69 5.43 5.43 0 01-1.45-.17.684.684 0 00-.64.17l-.15.16zm5.69 20.44a3.594 3.594 0 01-1.21.22h-.01a3.571 3.571 0 01-1.07-.17l4.35-4.31a3.409 3.409 0 01-2.06 4.26zm-1.22-4.15l-5.96-5.91-.96.95 5.97 5.91z"/></svg>