<svg xmlns="http://www.w3.org/2000/svg" viewBox="0 0 56 56"><path fill="#e22a1b" d="M13.6 16.6c.6 0 1-.5 1-1 0-.6-.5-1-1-1-.6 0-1 .5-1 1s.4 1 1 1zm0 6.2c.6 0 1-.5 1-1s-.5-1-1-1c-.6 0-1 .5-1 1s.4 1 1 1zM43 46.2h-3.1V6.7c0-2.9-2.3-5.2-5.2-5.2H4.3C1.9 1.5 0 3.4 0 5.6v5.2c0 .6.5 1 1 1h5.2v37.3c0 2.8 2.2 5.4 5.2 5.4h25.1c4 0 7.3-3.3 7.3-7.2.2-.6-.3-1.1-.8-1.1zM6.3 9.8H2.1V5.6c0-1.1.9-2.1 2.1-2.1 1.1 0 2.1.9 2.1 2.1v4.2zm8.4 37.5v2.1c0 1.7-1.4 3.1-3.1 3.1-1.9 0-3.1-1.6-3.1-3.3V5.6c0-.7-.2-1.5-.6-2.1h26.8c1.7 0 3.1 1.4 3.1 3.1v39.5h-22c-.7.1-1.1.6-1.1 1.2zm22 5.1h-21c.7-.9 1.1-2 1.1-3.1v-1h25c-.5 2.3-2.6 4.1-5.1 4.1zM23 31.1c0 1.8.8 3.4 2.1 4.6v6.8c0 .4.2.7.6.9.3.2.8.2 1.1-.1l2.6-1.7 2.6 1.7c.3.2.7.2 1.1.1.3-.2.6-.5.6-.9v-6.8c1.3-1.2 2.1-2.8 2.1-4.6 0-3.4-2.8-6.2-6.3-6.2-3.6 0-6.5 2.8-6.5 6.2zm8.4 9.5l-1.5-1c-.4-.2-.8-.2-1.2 0l-1.5 1V37c.7.2 1.4.4 2.1.4.7 0 1.4-.1 2.1-.4v3.6zm2.1-9.5c0 2.3-1.9 4.1-4.2 4.1s-4.2-1.8-4.2-4.1S27 27 29.3 27s4.2 1.8 4.2 4.1zM13.6 10.4h18.9c.6 0 1-.5 1-1 0-.6-.5-1-1-1H13.6c-.6 0-1 .5-1 1s.4 1 1 1zm4.2 6.2h14.7c.6 0 1-.5 1-1 0-.6-.5-1-1-1H17.8c-.6 0-1 .5-1 1 0 .6.4 1 1 1zm0 6.2h14.7c.6 0 1-.5 1-1 0-.6-.5-1-1-1H17.8c-.6 0-1 .5-1 1 0 .6.4 1 1 1zm-4.2 12.4h6.3c.6 0 1-.5 1-1 0-.6-.5-1-1-1h-6.3c-.6 0-1 .5-1 1 0 .6.4 1 1 1zm0-6.2h6.3c.6 0 1-.5 1-1 0-.6-.5-1-1-1h-6.3c-.6 0-1 .5-1 1 0 .6.4 1 1 1zM21 40.4c0-.6-.5-1-1-1h-6.3c-.6 0-1 .5-1 1s.5 1 1 1H20c.5.1 1-.4 1-1z"/></svg>