<svg xmlns="http://www.w3.org/2000/svg" viewBox="0 0 56 56"><path fill="#e22a1b" d="M56 4c0-1.1-.4-2.1-1.2-2.8C54.1.4 53.1 0 52 0c-1.1 0-2.1.4-2.8 1.2-.3.3-.9 1-1.2 1.3-.2.2-.3.5-.3.8 0 .3.2.6.4.8.2.2.5.3.8.3.3 0 .6-.2.8-.4.5-.6.9-1 1-1.2.3-.3.8-.5 1.3-.5s.9.2 1.2.5c.3.3.5.8.5 1.2 0 .5-.2.9-.5 1.3-.3.3-1.4 1.2-3 2.3-1.1-1.7-3-2.7-5-2.7H32.1c-1.8 0-3.6.7-4.9 2L.9 33.2c-.6.5-.9 1.3-.9 2.1s.3 1.6.9 2.1l17.7 17.7c.6.6 1.3.9 2.1.9s1.6-.3 2.1-.9l26.3-26.3c1.3-1.3 2-3 2-4.9V10.7c0-.3 0-.7-.1-1 1.9-1.3 3.2-2.4 3.7-2.8.9-.8 1.3-1.8 1.3-2.9zm-8.4 23.2L21.3 53.5c-.2.2-.4.2-.6.2s-.4-.1-.6-.2L2.5 35.9c-.2-.2-.2-.4-.2-.6s.1-.4.2-.6L28.8 8.4c.9-.9 2-1.4 3.3-1.4h13.2c1.3 0 2.5.7 3.1 1.8-1.1.7-2.1 1.4-3.2 2-1.6-1.6-4.1-1.6-5.7 0-1.6 1.6-1.6 4.1 0 5.7.8.8 1.8 1.2 2.8 1.2 1.1 0 2.1-.4 2.8-1.2 1-1 1.4-2.4 1.1-3.7.9-.5 1.8-1.1 2.7-1.6V24c.1 1.1-.4 2.3-1.3 3.2zm-6.2-13.1c.2.4.6.6 1 .6.2 0 .3 0 .5-.1l1.2-.6c-.1.3-.2.6-.5.9-.7.7-1.8.7-2.5 0s-.7-1.8 0-2.5c.3-.3.8-.5 1.2-.5.2 0 .5 0 .7.1l-1.2.6c-.3.1-.5.4-.6.6 0 .3.1.6.2.9zM27 18.3c-.6 0-1.1.5-1.1 1.1v19c0 .6.5 1.1 1.1 1.1.6 0 1.1-.5 1.1-1.1v-19c.1-.6-.4-1.1-1.1-1.1zM20.3 25c-1.1 0-2.1.4-2.8 1.2-.8.8-1.2 1.8-1.2 2.8 0 1.1.4 2.1 1.2 2.8.8.8 1.8 1.2 2.8 1.2 1.1 0 2.1-.4 2.8-1.2.8-.8 1.2-1.8 1.2-2.8 0-1.1-.4-2.1-1.2-2.8-.8-.8-1.8-1.2-2.8-1.2zm1.2 5.2c-.7.7-1.8.7-2.5 0s-.7-1.8 0-2.5c.3-.3.8-.5 1.2-.5.5 0 .9.2 1.2.5.4.3.6.8.6 1.3 0 .4-.2.9-.5 1.2zM33.8 25c-1.1 0-2.1.4-2.8 1.2-.8.8-1.2 1.8-1.2 2.8 0 1.1.4 2.1 1.2 2.8.8.8 1.8 1.2 2.8 1.2 1.1 0 2.1-.4 2.8-1.2 1.6-1.6 1.6-4.1 0-5.7-.7-.7-1.7-1.1-2.8-1.1zm1.3 5.2c-.7.7-1.8.7-2.5 0s-.7-1.8 0-2.5c.3-.3.8-.5 1.2-.5.5 0 .9.2 1.2.5.8.7.8 1.8.1 2.5z"/></svg>