<svg xmlns="http://www.w3.org/2000/svg" width="50" height="43"><path fill="#c8e0d5" d="M46.1 4.22a13.754 13.754 0 00-19.72-.11l-1.35 1.37-1.36-1.37a13.751 13.751 0 00-19.61 0 14.149 14.149 0 000 19.84l17.33 17.53a5.106 5.106 0 007.27 0l17.22-17.42a14.271 14.271 0 00.22-19.84zm-2.04 18.01L26.84 39.64a2.536 2.536 0 01-3.63 0L5.88 22.11a11.517 11.517 0 010-16.16 11.2 11.2 0 0115.98 0l1.35 1.37-2.07 2.09a1.316 1.316 0 000 1.84 1.268 1.268 0 001.81 0l5.24-5.3a11.218 11.218 0 0116.08.09 11.657 11.657 0 01-.21 16.19zm1.48-8.79a9.569 9.569 0 00-2.73-6.12 9.446 9.446 0 00-4.1-2.43 1.279 1.279 0 00-1.58.9 1.3 1.3 0 00.89 1.6 6.86 6.86 0 014.95 6.21 1.3 1.3 0 001.28 1.22h.08a1.311 1.311 0 001.21-1.38z"/></svg>