<svg xmlns="http://www.w3.org/2000/svg" width="35.219" height="43"><path fill="#e22a1b" d="M9.321 8.62a.672.672 0 00-.675.67A1.486 1.486 0 117.16 7.81a.675.675 0 100-1.35 2.83 2.83 0 102.837 2.83.673.673 0 00-.676-.67zm0 7.9a.672.672 0 00-.675.67 1.486 1.486 0 11-1.486-1.48.675.675 0 100-1.35 2.83 2.83 0 102.837 2.83.673.673 0 00-.676-.67zm7.926 1.43H12.2a.675.675 0 100 1.35h5.044a.675.675 0 10.003-1.35zm0-2.87H12.2a.675.675 0 100 1.35h5.044a.675.675 0 10.003-1.35zm-1.441 10.77h-3.6a.675.675 0 100 1.35h3.6a.675.675 0 100-1.35zm1.441-2.87H12.2a.675.675 0 100 1.35h5.044a.675.675 0 10.003-1.35zm6.484-12.93H12.2a.681.681 0 00-.675.68.672.672 0 00.675.67h11.528a.672.672 0 00.675-.67.681.681 0 00-.672-.68zm-2.882-2.87H12.2a.675.675 0 100 1.35h8.646a.675.675 0 10.003-1.35zM9.321 24.42a.672.672 0 00-.675.67 1.486 1.486 0 11-1.486-1.48.675.675 0 100-1.35 2.83 2.83 0 102.837 2.83.673.673 0 00-.676-.67zM26.613 0h-24.5A2.117 2.117 0 00-.003 2.11v30.16a2.111 2.111 0 002.116 2.11h12.249a.672.672 0 00.675-.67.681.681 0 00-.675-.68H2.116a.763.763 0 01-.765-.76V2.11a.763.763 0 01.765-.76h24.5a.764.764 0 01.766.76v22.26a.675.675 0 101.35 0V2.11A2.117 2.117 0 0026.613 0zm6.377 27.3a2.539 2.539 0 00-1.752.49 2.47 2.47 0 00-1.85-1.21 2.538 2.538 0 00-1.752.49 2.435 2.435 0 00-1.851-1.2 2.51 2.51 0 00-1.379.25v-8.57a2.481 2.481 0 00-2.729-2.46 2.556 2.556 0 00-2.224 2.56v8.6l-1.985 1.98a4.22 4.22 0 00-1.14 3.99l1.508 6.38a5.7 5.7 0 005.567 4.4H29.5a5.718 5.718 0 005.719-5.7v-7.44a2.556 2.556 0 00-2.229-2.56zm.873 10a4.363 4.363 0 01-4.368 4.35H23.4a4.349 4.349 0 01-4.252-3.35l-1.508-6.39a2.891 2.891 0 01.78-2.73l1.03-1.03v2.33a.676.676 0 001.351 0V17.65a1.2 1.2 0 011.007-1.22 1.119 1.119 0 01.874.29 1.107 1.107 0 01.371.83V29.4a.676.676 0 001.351 0v-1.08a1.126 1.126 0 01.37-.83 1.077 1.077 0 01.874-.28 1.183 1.183 0 011.007 1.21v1.7a.676.676 0 001.351 0v-1.08a1.134 1.134 0 011.244-1.12 1.2 1.2 0 011.008 1.22v1.7a.676.676 0 001.351 0v-1.08a1.134 1.134 0 011.244-1.12 1.193 1.193 0 011.007 1.22v7.44z"/></svg>