<svg xmlns="http://www.w3.org/2000/svg" viewBox="0 0 56 56"><path fill="#e22a1b" d="M38 24.9l-9.2-11.2v-9C28.8 2.1 26.6 0 24 0H4.8C2.2 0 0 2.1 0 4.7v33.6C0 40.9 2.2 43 4.8 43h8.6v2.5c0 5.9 4.9 10.6 10.9 10.6h15c.5 0 1-.4 1-.9V31.3c0-2.3-.8-4.6-2.3-6.4zm-15-23h1c1.6 0 2.9 1.3 2.9 2.8v24.5l-3.8-4V1.9zm-4.8 0h2.9v21.3l-1.6-1.7c-.4-.4-.8-.7-1.2-.9V1.9zM4.8 41.1c-1.6 0-2.9-1.3-2.9-2.8V4.7c0-1.5 1.3-2.8 2.9-2.8h11.5v18.3c-1.2 0-2.3.4-3.1 1.2l-.1.1c-1.6 1.6-1.7 4.1-.3 5.8l3.5 4v9.8H4.8zm33.6 13h-14c-5 0-9-3.9-9-8.7v-2.5h6.2c1.1 3.8 4 6.9 7.8 8.3l.7-1.7C25.8 48 23 44 23 39.6v-3.2c0-.2-.1-.4-.2-.6L14.3 26c-.8-1-.8-2.4.2-3.4.5-.4 1.1-.7 1.8-.7s1.3.3 1.8.8L31 36l1.4-1.3-3.6-3.7V16.7l7.7 9.4c1.2 1.5 1.9 3.3 1.9 5.3v22.7zm-17.2-13h-3v-7.6l2.9 3.3v2.9c0 .4 0 .9.1 1.4zM6.7 4.7H4.8v12.1h1.9V4.7zm4.8 0H9.6v7.5h1.9V4.7zm0 26.1H5.8c-.5 0-1 .4-1 .9v5.6c0 .5.4.9 1 .9h5.8c.5 0 1-.4 1-.9v-5.6c-.1-.5-.6-.9-1.1-.9zm-1 5.6H6.7v-3.7h3.8v3.7z"/></svg>