<svg xmlns="http://www.w3.org/2000/svg" width="51.597" height="27.56"><path fill="#e22a1b" d="M9.659 22.79h-.008a.76.76 0 10.008 0zm6.458 0a.76.76 0 10.76.76.76.76 0 00-.76-.76zm26.66 0h-.01a.751.751 0 00-.75.76.76.76 0 10.76-.76zm8.13-9.22l-1.02-1.02-2.04-6.19a.77.77 0 00.52-.73.751.751 0 00-.75-.76h-7.32V1.56a1.575 1.575 0 00-1.57-1.58H1.573A1.574 1.574 0 00.01 1.56v17.92a1.565 1.565 0 001.563 1.57h.86v1.68a1.575 1.575 0 001.564 1.58h1.74a4.006 4.006 0 003.914 3.26 3.964 3.964 0 016.466 0 4 4 0 003.91-3.26h18.83a3.983 3.983 0 007.9-.76v-.05h3.28a1.581 1.581 0 001.57-1.58v-6.66a2.41 2.41 0 00-.7-1.69zm-45.17 9.22h-1.74a.058.058 0 01-.052-.06v-1.68h2.584a4.038 4.038 0 00-.792 1.74zm3.914 3.25a2.5 2.5 0 01-.015-4.99h.031a2.5 2.5 0 01-.016 4.99zm6.466 0a2.5 2.5 0 01-.02-4.99h.03a2.5 2.5 0 01-.01 4.99zm22.74-3.25h-18.83a4.011 4.011 0 00-.79-1.74h14.65a.76.76 0 000-1.52H1.573a.05.05 0 01-.052-.05V1.56a.05.05 0 01.052-.05h37.154a.056.056 0 01.06.05v17.97h-1.67a.76.76 0 000 1.52h2.53a4.011 4.011 0 00-.79 1.74zm9.6-9.78h-4.88a.047.047 0 01-.05-.05V9.65h3.81zm-5.69 13.03a2.5 2.5 0 01-.01-4.99h.02a2.5 2.5 0 01-.01 4.99zm7.32-4.12a.047.047 0 01-.05.05h-3.6a4 4 0 00-3.67-2.44h-2.47V6.45a.056.056 0 01.05-.06h5.92l.57 1.74h-4.07a.751.751 0 00-.75.76v4.07a1.573 1.573 0 001.56 1.58h6.15l.11.11a.886.886 0 01.25.62v1.82h-.86a.76.76 0 000 1.52h.86v3.31zm-13.78-5.65H3.997a.758.758 0 00-.756.76.766.766 0 00.756.77h32.31a.768.768 0 00.76-.77.76.76 0 00-.76-.76z"/></svg>