<svg xmlns="http://www.w3.org/2000/svg" width="48.312" height="35.69"><path fill="#e22a1b" d="M17.922 7.85a10.07 10.07 0 1010.16 10.07 10.128 10.128 0 00-10.16-10.07zm0 18.5a8.43 8.43 0 118.507-8.43 8.477 8.477 0 01-8.507 8.43zm29.555.77a.826.826 0 00-.827.82v3.81H35.859V18.3a18.2 18.2 0 00-1.212-6.55l.659-.65a2.381 2.381 0 00.4-2.83 20.231 20.231 0 00-8.05-7.98 2.437 2.437 0 00-2.85.4l-.6.59A17.973 17.973 0 005.243 5.35 17.549 17.549 0 00-.008 18.19a17.374 17.374 0 005.527 12.43 18.557 18.557 0 0012.794 5.08h15.164a2.381 2.381 0 002.382-2.32h11.618a.817.817 0 00.826-.81v-4.63a.826.826 0 00-.826-.82zm-13.54-16.98a18.348 18.348 0 00-3.2-4.52A18.008 18.008 0 0025.822 2l.151-.15a.749.749 0 01.886-.12 18.557 18.557 0 017.4 7.33.74.74 0 01-.118.88zm-.459 23.92H18.309c-9.057 0-16.535-7.13-16.669-15.89A15.965 15.965 0 016.408 6.5 16.277 16.277 0 0117.92 1.78h.256a16.467 16.467 0 0116.03 16.52v15.04a.723.723 0 01-.729.72zM26.984 6.29a.825.825 0 00-1.159.14.816.816 0 00.148 1.15 13.162 13.162 0 013.754 4.54.821.821 0 00.741.45.787.787 0 00.367-.09.808.808 0 00.372-1.09 14.8 14.8 0 00-4.224-5.1zm-2.955 8.14a.84.84 0 00-.5-.39.858.858 0 00-.627.09.8.8 0 00-.384.49.826.826 0 00.082.63 5.272 5.272 0 01.721 2.67 5.37 5.37 0 11-2.024-4.18.836.836 0 001.162-.12.826.826 0 00-.128-1.16 7.157 7.157 0 00-4.406-1.53 6.985 6.985 0 107.049 6.99 6.9 6.9 0 00-.946-3.49z"/></svg>