<svg xmlns="http://www.w3.org/2000/svg" viewBox="0 0 43 33" width="43" height="33">
	<path fill="#e22a1b" d="M39.2,0H8.8C6.7,0,5,1.7,5,3.8v1.3H3.8C1.7,5.1,0,6.8,0,8.9v20.3C0,31.3,1.7,33,3.8,33h30.4c2.1,0,3.8-1.7,3.8-3.8v-1.3h1.3c2.1,0,3.8-1.7,3.8-3.8V3.8C43,1.7,41.3,0,39.2,0z M33.5,7.6L19.9,21.4c-0.2,0.2-0.6,0.4-0.9,0.4s-0.7-0.1-0.9-0.4L4.4,7.6H33.5z M2.5,28.5V9.3l9.1,9.1L2.5,28.5z M34.2,30.5H4.1l9.3-10.2l2.9,3c0.7,0.7,1.7,1.1,2.7,1.1c1,0,2-0.4,2.7-1.1l3.1-3.2L34.2,30.5C34.2,30.5,34.2,30.5,34.2,30.5z M35.4,28l-8.9-9.8l8.9-9V28z M40.5,24.1c0,0.7-0.6,1.3-1.3,1.3H38V8.9c0-2.1-1.7-3.8-3.8-3.8H7.6V3.8c0-0.7,0.6-1.3,1.3-1.3h30.4c0.7,0,1.3,0.6,1.3,1.3V24.1z"/>
</svg>
