<svg xmlns="http://www.w3.org/2000/svg" viewBox="0 0 34 34" width="34" height="34">
	 <path fill="#e22a1b" d="M0,0h9.9c0,3.3,0.7,6.6,2,9.7c0.2,0.6,0.6,1.2,0.8,1.8c-1.4,1.4-2.7,2.7-4.1,4.1c0.3,0.5,0.6,1,1,1.5c0.3,0.4,0.6,0.8,0.9,1.3c1.7,2.2,3.7,4.1,5.9,5.7c0.6,0.5,1.3,0.9,2,1.3c1.4-1.4,2.7-2.8,4.1-4.1c1.9,1,4,1.8,6.2,2.3c1.7,0.4,3.5,0.6,5.3,0.6V34h-0.2c-2.4,0-4.8-0.3-7.1-0.8c-4.3-0.9-8.4-2.7-12-5.2c-3.6-2.5-6.7-5.6-9.1-9.3C2.7,14.4,0.9,9.3,0.3,4.2C0.1,2.9,0,1.5,0,0.2V0z M3,2.8C3.3,6.7,4.4,10.5,6.2,14c1.1-1.1,2.1-2.1,3.2-3.2c-1.1-2.5-1.8-5.2-2.1-8C5.8,2.8,4.4,2.8,3,2.8z M20,27.8C20,27.8,20,27.8,20,27.8c3.5,1.8,7.3,2.9,11.2,3.2c0-1.4,0-2.8,0-4.3c-2.8-0.3-5.5-1-8-2.1C22.1,25.7,21.1,26.7,20,27.8z"/>
</svg>
