<svg xmlns="http://www.w3.org/2000/svg" viewBox="0 0 37 37" width="37" height="37">
	 <path fill="#e22a1b" d="M36.9,14.6L34.7,8V1.4c0-0.7-0.6-1.4-1.4-1.4H3.6C2.9,0,2.3,0.6,2.3,1.4V8l-2.2,6.7C0,14.8,0,14.9,0,15.1v6.9c0,0.7,0.6,1.4,1.4,1.4h0.9v12.4c0,0.7,0.6,1.4,1.4,1.4h29.7c0.7,0,1.4-0.6,1.4-1.4V23.3h0.9c0.7,0,1.4-0.6,1.4-1.4v-6.9C37,14.9,37,14.8,36.9,14.6z M5,6.9V2.7h27v4.2H5z M34.3,16.4v4.2h-4.2v-4.2H34.3z M32,23.3v4.2H18.7v-4.2H32z M20.6,16.4v4.2h-4.2v-4.2H20.6z M23.3,20.6v-4.2h4.2v4.2H23.3z M16,23.3v11H5v-11H16z M9.6,20.6v-4.2h4.2v4.2H9.6z M3.2,13.7l1.4-4.2h27.8l1.4,4.2H3.2z M6.9,16.4v4.2H2.7v-4.2H6.9z M32,30.1v4.2H18.7v-4.2H32z"/>
</svg>
