<svg xmlns="http://www.w3.org/2000/svg" viewBox="0 0 33 40" width="33" height="40">
	<path fill="#e22a1b" d="M33,0c-0.8,0.3-1.6,0.7-2.4,1c-2.3,0.9-4.7,1.7-7.1,1.5c-2.5-0.3-4.8-1.2-7-2.5c-2.1,1.3-4.4,2.3-6.9,2.6c-1.2,0.1-2.4,0-3.5-0.3C4,1.8,2,0.8,0,0c0,7.6,0,15.2,0,22.9c0,1.6,0.4,3.3,1.2,4.7c0.4,0.7,0.9,1.3,1.4,1.9c1.4,1.7,2.9,3.2,4.5,4.6c2.8,2.4,6,4.4,9.4,5.9c2.1-0.9,4.1-1.9,6-3.1c3.5-2.3,6.6-5.2,9-8.7c1-1.5,1.5-3.4,1.5-5.2C33,15.4,33,7.7,33,0z M29.9,22.4c0,0.7,0,1.3-0.1,2c-0.2,0.8-0.5,1.5-0.9,2.2c-3.1,4.4-7.4,7.9-12.3,10c-4.8-2.3-9-5.8-12.3-10c-0.8-1.1-1.2-2.4-1.2-3.8c0-6.1,0-12.1,0-18.2C5.5,5.5,8.2,6,10.8,5.6c2-0.3,4-1,5.8-2c2.1,1,4.3,1.8,6.6,2c2.3,0.2,4.6-0.2,6.8-1C29.9,10.5,29.9,16.4,29.9,22.4z M9.4,22.9c-0.1-0.1-0.1-0.2-0.1-0.4c0-4.6,0-9.2,0-13.8c-1,0-2.1-0.1-3.1-0.2c0,4.5,0,9,0,13.5c0,0.4,0,0.9,0.1,1.3C6.4,24,6.7,24.5,7.1,25c2.6,3.2,5.7,6,9.4,8c0-1.2,0-2.4,0-3.6C13.7,27.6,11.4,25.4,9.4,22.9z"/>
</svg>
