<svg xmlns="http://www.w3.org/2000/svg" viewBox="0 0 41 41" width="41" height="41">
	<path fill="#e22a1b" d="M39.8,15.9l-5-0.6c-0.1-0.4-0.3-0.8-0.5-1.2l3.1-3.9c0.4-0.5,0.4-1.3-0.1-1.8l-4.7-4.7c-0.5-0.5-1.2-0.5-1.8-0.1l-3.9,3.1c-0.4-0.2-0.8-0.3-1.2-0.5l-0.6-5C25.1,0.5,24.5,0,23.8,0h-6.6c-0.7,0-1.2,0.5-1.3,1.2l-0.6,5c-0.4,0.1-0.8,0.3-1.2,0.5l-3.9-3.1C9.6,3.1,8.8,3.2,8.4,3.7L3.7,8.4c-0.5,0.5-0.5,1.2-0.1,1.8l3.1,3.9c-0.2,0.4-0.3,0.8-0.5,1.2l-5,0.6C0.5,15.9,0,16.5,0,17.2v6.6c0,0.7,0.5,1.2,1.2,1.3l5,0.6c0.1,0.4,0.3,0.8,0.5,1.2l-3.1,3.9c-0.4,0.5-0.4,1.3,0.1,1.8l4.7,4.7c0.5,0.5,1.2,0.5,1.8,0.1l3.9-3.1c0.4,0.2,0.8,0.3,1.2,0.5l0.6,5c0.1,0.7,0.7,1.2,1.3,1.2h6.6c0.7,0,1.2-0.5,1.3-1.2l0.6-5c0.4-0.1,0.8-0.3,1.2-0.5l3.9,3.1c0.5,0.4,1.3,0.4,1.8-0.1l4.7-4.7c0.5-0.5,0.5-1.2,0.1-1.8l-3.1-3.9c0.2-0.4,0.3-0.8,0.5-1.2l5-0.6c0.7-0.1,1.2-0.7,1.2-1.3v-6.6C41,16.5,40.5,15.9,39.8,15.9z M33.7,23.2c-0.5,0.1-1,0.4-1.1,0.9c-0.2,0.8-0.6,1.6-1,2.3c-0.3,0.5-0.2,1,0.1,1.5l2.9,3.7l-3,3l-3.7-2.9c-0.4-0.3-1-0.4-1.5-0.1c-0.7,0.4-1.5,0.7-2.3,1c-0.5,0.2-0.9,0.6-0.9,1.1l-0.6,4.6h-4.3l-0.6-4.6c-0.1-0.5-0.4-1-0.9-1.1c-0.8-0.2-1.6-0.6-2.3-1c-0.5-0.3-1-0.2-1.5,0.1l-3.7,2.9l-3-3l2.9-3.7c0.3-0.4,0.4-1,0.1-1.5c-0.4-0.7-0.7-1.5-1-2.3c-0.2-0.5-0.6-0.9-1.1-0.9l-4.6-0.6v-4.3l4.6-0.6c0.5-0.1,1-0.4,1.1-0.9c0.2-0.8,0.6-1.6,1-2.3c0.3-0.5,0.2-1-0.1-1.5L6.4,9.4l3-3l3.7,2.9c0.4,0.3,1,0.4,1.5,0.1c0.7-0.4,1.5-0.7,2.3-1c0.5-0.2,0.9-0.6,0.9-1.1l0.6-4.6h4.3l0.6,4.6c0.1,0.5,0.4,1,0.9,1.1c0.8,0.2,1.6,0.6,2.3,1c0.5,0.3,1,0.2,1.5-0.1l3.7-2.9l3,3l-2.9,3.7c-0.3,0.4-0.4,1-0.1,1.5c0.4,0.7,0.7,1.5,1,2.3c0.2,0.5,0.6,0.9,1.1,0.9l4.6,0.6v4.3h0L33.7,23.2z M20.5,12.2c-4.6,0-8.3,3.7-8.3,8.3c0,4.6,3.7,8.3,8.3,8.3c4.6,0,8.3-3.7,8.3-8.3C28.8,15.9,25.1,12.2,20.5,12.2z M20.5,26.2c-3.1,0-5.7-2.5-5.7-5.7c0-3.1,2.5-5.7,5.7-5.7c3.1,0,5.7,2.5,5.7,5.7C26.2,23.6,23.6,26.2,20.5,26.2z"/>
</svg>
