<svg xmlns="http://www.w3.org/2000/svg" viewBox="0 0 15 15"><path d="M10.1.5H4.9C2.5.5.5 2.5.5 4.9v5.2c0 2.4 2 4.4 4.4 4.4h5.3c2.4 0 4.4-2 4.4-4.4V4.9C14.5 2.5 12.5.5 10.1.5zm3.1 9.6c0 1.7-1.4 3.1-3.1 3.1H4.9c-1.7 0-3.1-1.4-3.1-3.1V4.9c0-1.7 1.4-3.1 3.1-3.1h5.3c1.7 0 3.1 1.4 3.1 3.1v5.2zM7.5 4C5.6 4 4 5.6 4 7.5S5.6 11 7.5 11 11 9.4 11 7.5 9.4 4 7.5 4zm0 5.7c-1.2 0-2.2-1-2.2-2.2 0-1.2 1-2.2 2.2-2.2s2.2 1 2.2 2.2c0 1.2-1 2.2-2.2 2.2zm3.8-6.4c-.3 0-.5.2-.5.5s.2.5.5.5.5-.2.5-.5c-.1-.3-.3-.5-.5-.5z"/></svg>