<svg xmlns="http://www.w3.org/2000/svg" viewBox="0 0 15 15"><path d="M14.9 11.1s0-.1-.1-.1c-.3-.5-.8-1.1-1.5-1.8-.3-.3-.5-.6-.6-.7-.2-.2-.2-.4-.1-.7.1-.2.3-.5.7-1.1.2-.3.4-.5.5-.7.9-1.2 1.3-2 1.2-2.4v-.1s-.1-.1-.2-.1h-3s-.1 0-.1.1l-.1.1c-.2.7-.5 1.3-.8 1.8-.2.3-.4.6-.5.9-.4.4-.5.6-.6.7l-.3.3c-.1.1-.2.1-.2.1h-.1l-.2-.2c0-.1-.1-.2-.1-.3V3.7c0-.1 0-.2-.1-.3 0-.1-.1-.2-.2-.2s-.2-.1-.3-.1C8 3 7.6 3 7.2 3c-1 0-1.6.1-1.9.2-.1.1-.2.1-.2.2-.1.2-.2.2-.1.2.3 0 .5.2.7.4v.1c0 .1.1.2.1.4s.1.4.1.6v1c0 .3 0 .5-.1.7 0 .2-.1.3-.1.4 0 .1-.1.2-.1.2h-.2c-.1 0-.2 0-.3-.1L4.8 7c-.1-.2-.2-.3-.4-.6-.1-.2-.3-.5-.4-.8l-.1-.3c-.1-.1-.2-.4-.4-.6l-.3-.9c0-.1-.1-.2-.2-.3 0 0-.1 0-.1-.1-.1 0-.1 0-.2-.1H.6c-.2 0-.4.1-.4.2v.1c-.2.2-.2.3-.2.4.3.8.7 1.5 1 2.2.4.7.7 1.3 1 1.7.3.4.5.9.8 1.2.3.4.5.6.6.7l.2.2.2.2c.1.1.3.3.6.5.2.2.5.4.8.5.3.2.6.3 1 .4s.8.4 1.1.4h.9c.2 0 .3-.1.4-.2 0 0 0-.1.1-.2v-.2c0-.2 0-.4.1-.6 0-.2.1-.3.1-.4 0-.1.1-.2.2-.2s.1-.1.1-.1h.1c.1 0 .3 0 .4.1.2.1.3.3.5.5.1.2.3.4.5.6l.5.5.2.1c.1.1.2.1.4.2s.3.1.4 0h2c.2 0 .4 0 .5-.1.1-.1.2-.1.2-.2v-.3c.1-.3 0-.3 0-.4z"/></svg>