<svg width="127" height="47" xmlns="http://www.w3.org/2000/svg" viewBox="0 0 127 47">
	<path fill="#e22a1b" d="M56.6,30.1c-1.8,0-3.2,0.6-4.3,1.6l-0.2-1.3h-2.3v16.3h2.8v-5.4c1,0.9,2.4,1.4,4,1.4c3.8,0,6.5-2.6,6.5-6.3C63.1,32.7,60.4,30.1,56.6,30.1z M56.3,40c-2.2,0-3.8-1.5-3.8-3.6c0-2.1,1.6-3.6,3.8-3.6c2.2,0,3.8,1.5,3.8,3.6C60.1,38.6,58.6,40,56.3,40z M68.3,38.1v-7.7h-2.8v12h2.3l6.6-7.7v7.7h2.8v-12h-2.3L68.3,38.1z M15.5,26.1H3.9v1.7c0,6.3-0.8,10-1.4,11.9H0v5.9h2.8v-3.2h12.4v3.2H18v-5.9h-2.5V26.1z M12.4,39.7H5.6c0.6-2.2,1.3-5.7,1.3-9.9v-1h5.5V39.7z M94.7,39.9h-4.4v-9.5h-2.8v9.5h-4.4v-9.5h-2.8v12h17.1v-12h-2.8V39.9z M115.5,30.4v12h2.8V33h6v9.5h2.8v-12H115.5z M30,36.4c1.1-0.5,1.7-1.5,1.7-2.8c0-1.9-1.4-3.2-3.4-3.2h-7.9v12h8.2c2,0,3.4-1.3,3.4-3.2C32,37.9,31.2,36.8,30,36.4z M23.2,32.9h4.2c0.8,0,1.3,0.5,1.3,1.2c0,0.7-0.5,1.2-1.3,1.2h-4.2V32.9z M27.7,40h-4.5v-2.4h4.5c0.8,0,1.3,0.5,1.3,1.2C29,39.5,28.5,40,27.7,40z M106.6,30.1c-3.9,0-6.7,2.6-6.7,6.3c0,3.7,2.8,6.3,6.7,6.3c3.9,0,6.7-2.6,6.7-6.3C113.3,32.7,110.5,30.1,106.6,30.1z M106.6,40c-2.2,0-3.8-1.5-3.8-3.6c0-2.1,1.6-3.6,3.8-3.6c2.2,0,3.8,1.5,3.8,3.6C110.4,38.6,108.8,40,106.6,40z M40.7,30.1c-3.9,0-6.6,2.6-6.6,6.3c0,3.7,2.8,6.3,6.8,6.3c3,0,5.3-1.4,6.3-3.7h-3.3c-0.7,0.7-1.7,1.1-3,1.1c-1.9,0-3.4-1.1-3.8-2.7h10.3c0-0.3,0.1-0.7,0.1-1c0-0.2,0-0.4,0-0.6C47,32.5,44.3,30.1,40.7,30.1z M37,35.2c0.5-1.5,1.8-2.4,3.6-2.4c1.8,0,3.2,1,3.7,2.4H37z M101.9,0.3H90.9v16.3h10.9V0.3z M85.4,4.5H74.4v16.3h10.9V4.5z M69,0.3H58.1v16.3H69V0.3z M52.6,4.5H41.6v16.3h10.9V4.5z M36.1,0.3H25.1v16.3h10.9V0.3z"/>
</svg>
