<svg xmlns="http://www.w3.org/2000/svg"  viewBox="0 0 50 50" width="50" height="50">
	<g>
		<path fill="#e22a1b" d="M25,0c13.8,0,25,11.2,25,25c0,13.8-11.2,25-25,25C11.2,50,0,38.8,0,25C0,11.2,11.2,0,25,0z"/>
		<path fill="#fff" fill-rule="evenodd" d="M24.3,17c-3,0.1-5.5,2.4-5.8,5.4c-0.1,0.6,0,1.2,0.1,1.7l0,0c0,0,0,0.1,0,0.2c0.1,0.4,0.2,0.8,0.4,1.2c0.6,1.4,2,3.8,5.1,6.4c0.2,0.2,0.5,0.2,0.7,0c3.1-2.6,4.5-5,5.1-6.4c0.2-0.4,0.3-0.8,0.4-1.2c0-0.1,0-0.2,0-0.2l0,0c0.1-0.4,0.1-0.7,0.1-1.1C30.5,19.6,27.7,16.9,24.3,17z M24.5,26c-1.6,0-2.9-1.3-2.9-2.9c0-1.6,1.3-2.9,2.9-2.9c1.6,0,2.9,1.3,2.9,2.9C27.4,24.7,26.1,26,24.5,26z"/>
	</g>
</svg>
