<svg xmlns="http://www.w3.org/2000/svg" viewBox="0 0 48 48" width="48" height="48">
	<path fill="#fff" d="M35.2,15.8V7.2c0-0.5-0.2-0.9-0.6-1.1c-0.4-0.2-0.9-0.2-1.2,0.1c-8.6,5.9-13.5,6.7-16.9,6.7H6.9C3.1,12.9,0,16,0,19.8v2.5c0,3.8,3.1,6.9,6.9,6.9h4.6l5,12.1c0.2,0.5,0.6,0.7,1.1,0.7c0.2,0,0.3,0,0.5-0.1c0.6-0.3,0.9-1,0.7-1.6L14,29.2h2.4c11.6,0,16.4,6.2,16.6,6.4c0.2,0.3,0.6,0.5,1,0.5c0.1,0,0.3,0,0.4-0.1c0.5-0.2,0.8-0.6,0.8-1.1v-8.6c2.4-0.5,4.2-2.7,4.2-5.2C39.4,18.5,37.6,16.4,35.2,15.8z M11.1,26.8H6.9c-2.5,0-4.5-2-4.5-4.5v-2.5c0-2.5,2-4.5,4.5-4.5h4.2V26.8z M32.8,32c-2.7-2.2-7.9-5.3-16.4-5.3h-3V15.3h3c3.4,0,8.3-0.7,16.4-5.9V32z M35.2,23.8v-5.4c1,0.5,1.8,1.5,1.8,2.7C37,22.3,36.2,23.3,35.2,23.8z M46.8,19.9h-4.7c-0.7,0-1.2,0.5-1.2,1.2c0,0.7,0.5,1.2,1.2,1.2h4.7c0.7,0,1.2-0.5,1.2-1.2C48,20.4,47.5,19.9,46.8,19.9z M41.6,18.1c0.1,0,0.3,0,0.4-0.1l4.5-1.8c0.6-0.2,0.9-0.9,0.7-1.6c-0.2-0.6-0.9-0.9-1.6-0.7l-4.5,1.8c-0.6,0.2-0.9,0.9-0.7,1.5C40.6,17.8,41.1,18.1,41.6,18.1z M46.5,25.9L42,24.1c-0.6-0.2-1.3,0.1-1.6,0.7c-0.2,0.6,0.1,1.3,0.7,1.6l4.5,1.8c0.1,0.1,0.3,0.1,0.4,0.1c0.5,0,0.9-0.3,1.1-0.8C47.5,26.8,47.2,26.1,46.5,25.9z"/>
</svg>
