<svg xmlns="http://www.w3.org/2000/svg" viewBox="0 0 48 48" width="48" height="48">
	<path fill="#fff" d="M38.9,18.7V17c0-4-1.4-7.8-4-10.6C32.3,3.6,28.7,2,24.7,2h-1.4c-4,0-7.6,1.6-10.2,4.4c-2.6,2.8-4,6.6-4,10.6v1.7c-3.1,0.2-5.6,2.8-5.6,6v2.6c0,3.3,2.7,6.1,6,6.1h3.4c0.6,0,1.1-0.5,1.1-1.1V19.8c0-0.6-0.5-1.1-1.1-1.1h-1.6V17c0-7.3,5.2-12.8,12-12.8h1.4c6.9,0,12,5.5,12,12.8v1.7h-1.6c-0.6,0-1.1,0.5-1.1,1.1v12.5c0,0.6,0.5,1.1,1.1,1.1h1.5c-0.4,5.8-4.4,7.1-6.2,7.4c-0.5-1.6-2-2.7-3.7-2.7H24c-2.1,0-3.9,1.7-3.9,3.9c0,2.1,1.7,3.9,3.9,3.9h2.8c1.8,0,3.3-1.2,3.7-2.9c0.9-0.1,2.3-0.5,3.7-1.3c2-1.2,4.3-3.6,4.7-8.4c3.1-0.2,5.6-2.8,5.6-6v-2.6C44.5,21.6,42,18.9,38.9,18.7z M11.8,31.2H9.5c-2.1,0-3.8-1.7-3.8-3.8v-2.6c0-2.1,1.7-3.8,3.8-3.8h2.3V31.2z M26.8,43.8H24c-0.9,0-1.7-0.7-1.7-1.7c0-0.9,0.7-1.7,1.7-1.7h2.8c0.9,0,1.7,0.7,1.7,1.7C28.4,43,27.7,43.8,26.8,43.8z M42.3,27.4c0,2.1-1.7,3.8-3.8,3.8h-2.3V20.9h2.3c2.1,0,3.8,1.7,3.8,3.8V27.4z"/>
</svg>
