<svg xmlns="http://www.w3.org/2000/svg" viewBox="0 0 20 20">
	<path d="M13.4,16.2c-0.5,0-1,0.2-1.4,0.6c-0.4,0.4-0.6,0.8-0.6,1.3c0,1,0.9,1.9,1.9,1.9c1,0,1.9-0.9,1.9-1.9S14.4,16.2,13.4,16.2z M13.4,18.7c-0.3,0-0.5-0.2-0.5-0.6c0-0.3,0.3-0.6,0.5-0.6c0.3,0,0.5,0.3,0.5,0.6C13.9,18.4,13.7,18.7,13.4,18.7z M4.3,16.2c-0.5,0-1,0.2-1.4,0.6c-0.4,0.4-0.6,0.8-0.6,1.3c0,1,0.9,1.9,1.9,1.9c0.5,0,1-0.2,1.4-0.6c0.4-0.4,0.6-0.8,0.6-1.3C6.2,17.1,5.4,16.2,4.3,16.2z M4.3,18.7c-0.3,0-0.5-0.2-0.5-0.6c0-0.3,0.3-0.6,0.5-0.6c0.3,0,0.5,0.2,0.5,0.6C4.9,18.4,4.6,18.7,4.3,18.7z M19.3,0h-2.2l-0.7,2.5H0.9c-0.3,0-0.5,0.1-0.7,0.3C0,3.1,0,3.3,0,3.6l2.7,7.8c-1,0.3-1.7,1.2-1.7,2.3C1,15,2.1,16,3.4,16h11.1c0.4,0,0.7-0.3,0.7-0.6c0-0.4-0.3-0.6-0.7-0.6H3.4c-0.6,0-1-0.5-1-1.1c0-0.6,0.5-1.1,1-1.1h11.8l3-11.3h1.1C19.7,1.3,20,1,20,0.7C20,0.3,19.7,0,19.3,0z M14.2,11.3h-10L1.6,3.8h14.5L14.2,11.3z M5.9,10.4c0.4,0,0.7-0.3,0.7-0.7V5.9c0-0.4-0.3-0.7-0.7-0.7c-0.4,0-0.7,0.3-0.7,0.7v3.8C5.2,10.1,5.5,10.4,5.9,10.4z M8.9,10.4c0.4,0,0.7-0.3,0.7-0.7V5.9c0-0.4-0.3-0.7-0.7-0.7c-0.4,0-0.7,0.3-0.7,0.7v3.8C8.2,10.1,8.5,10.4,8.9,10.4z M11.9,10.4c0.4,0,0.7-0.3,0.7-0.7V5.9c0-0.4-0.3-0.7-0.7-0.7c-0.4,0-0.7,0.3-0.7,0.7v3.8C11.2,10.1,11.5,10.4,11.9,10.4z"/>
</svg>
