<svg xmlns="http://www.w3.org/2000/svg" viewBox="0 0 43 43">
  <g>
    <path d="M38.2 3H4.8C3.8 3 3 3.8 3 4.8v33.3c0 1 .8 1.8 1.8 1.8h33.3c1 0 1.8-.8 1.8-1.8V4.8c.1-1-.7-1.8-1.7-1.8zm-34 1.8c0-.3.3-.6.6-.6h33.3c.3 0 .6.3.6.6v5.5H4.2V4.8zm34.6 33.4c0 .3-.3.6-.6.6H4.8c-.3 0-.6-.3-.6-.6V11.6h34.5v26.6z"/>
    <path d="M7.3 5.5c-1 0-1.8.8-1.8 1.8s.8 1.9 1.8 1.9 1.9-.8 1.9-1.9-.9-1.8-1.9-1.8zm0 2.4c-.3 0-.6-.2-.6-.6s.3-.6.6-.6.6.3.6.6-.2.6-.6.6zM12.3 5.5c-1 0-1.9.8-1.9 1.8s.8 1.9 1.9 1.9 1.9-.8 1.9-1.9-.9-1.8-1.9-1.8zm0 2.4c-.3 0-.6-.3-.6-.6s.3-.6.6-.6.6.3.6.6-.3.6-.6.6zM17.2 5.5c-1 0-1.8.8-1.8 1.8s.8 1.9 1.8 1.9 1.9-.8 1.9-1.9-.9-1.8-1.9-1.8zm0 2.4c-.3 0-.6-.3-.6-.6s.3-.6.6-.6.6.3.6.6-.3.6-.6.6zM11 33.8h21c1.7 0 3.1-1.4 3.1-3.1V19.6c0-1.7-1.4-3.1-3.1-3.1H11c-1.7 0-3.1 1.4-3.1 3.1v11.1c0 1.8 1.4 3.1 3.1 3.1zM9.2 19.6c0-1 .8-1.9 1.8-1.9h21c1 0 1.8.8 1.8 1.9v11.1c0 1-.8 1.8-1.8 1.8H11c-1 0-1.8-.8-1.8-1.8V19.6z"/>
    <path d="M17.8 29.5c.3 0 .6-.3.6-.6v-3.1h2.5v3.1c0 .3.3.6.6.6s.6-.3.6-.6v-5.5c0-1.4-1.1-2.5-2.5-2.5s-2.5 1.1-2.5 2.5v5.5c.1.3.4.6.7.6zm1.8-7.4c.7 0 1.2.6 1.2 1.2v1.2h-2.5v-1.2c.1-.6.7-1.2 1.3-1.2zM24.6 29.5h1.8c.3 0 .6-.3.6-.6s-.3-.6-.6-.6h-1.8c-.3 0-.6-.3-.6-.6v-6.2c0-.3-.3-.6-.6-.6s-.6.3-.6.6v6.2c-.1 1 .8 1.8 1.8 1.8zM28.9 29.5h1.9c.3 0 .6-.3.6-.6s-.3-.6-.6-.6h-1.9c-.3 0-.6-.3-.6-.6v-1.8h1.9c.3 0 .6-.3.6-.6s-.3-.6-.6-.6h-1.9v-1.9c0-.3.3-.6.6-.6h1.9c.3 0 .6-.3.6-.6s-.3-.6-.6-.6h-1.9c-1 0-1.9.8-1.9 1.9v4.9c0 .9.9 1.7 1.9 1.7zM14.1 28.3c-.7 0-1.2-.6-1.2-1.2 0-.3-.3-.6-.6-.6s-.6.3-.6.6c0 1.4 1.1 2.5 2.5 2.5s2.5-1.1 2.5-2.5-1.1-2.5-2.5-2.5c-.7 0-1.2-.6-1.2-1.2 0-.7.6-1.2 1.2-1.2.7 0 1.2.6 1.2 1.2 0 .3.3.6.6.6s.6-.3.6-.6c0-1.4-1.1-2.5-2.5-2.5s-2.5 1.1-2.5 2.5 1.1 2.5 2.5 2.5c.7 0 1.2.6 1.2 1.2s-.5 1.2-1.2 1.2z"/>
  </g>
</svg>
