<svg xmlns="http://www.w3.org/2000/svg" viewBox="0 0 43 43">
  <g>
    <path d="M39.4 12.1L23.1 2.9c-1-.5-2.1-.5-3.1 0L3.6 12.1c-.7.4-1.1 1.1-1 1.9.1.8.6 1.4 1.4 1.6.2 0 .3.1.5.1.3 0 .6-.1.9-.2l16-9 16 9c.4.2 1 .3 1.4.2.7-.2 1.3-.8 1.4-1.6.2-.9-.1-1.7-.8-2zM39 14c-.2.3-.6.4-.9.2l-16-9c-.4-.2-.9-.2-1.3 0l-16 9c-.2.3-.6.2-.8-.2-.2-.3-.1-.7.2-.9L20.6 4c.6-.3 1.3-.3 1.9 0l16.3 9.2c.2.1.3.2.3.4 0 .1 0 .3-.1.4zM6.3 16.7c-.3 0-.6.3-.6.6v22.5c0 .3.3.6.6.6s.6-.3.6-.6V17.4c0-.4-.2-.7-.6-.7zM36.7 16.7c-.3 0-.6.3-.6.6v22.5c0 .3.3.6.6.6s.6-.3.6-.6V17.4c0-.4-.2-.7-.6-.7zM34.2 15.8H8.8c-.3 0-.6.3-.6.6v23.4c0 .3.3.6.6.6s.6-.3.6-.6V19.6h24.1v20.3c0 .3.3.6.6.6s.6-.3.6-.6V16.4c.1-.3-.2-.6-.5-.6zM9.5 18.3V17h24.1v1.3H9.5z"/>
    <path d="M26.6 12c.3 0 .6-.3.6-.6s-.3-.6-.6-.6H16.4c-.3 0-.6.3-.6.6v2.5c0 .3.3.6.6.6h10.1c.3 0 .6-.3.6-.6s-.3-.6-.6-.6H17V12h9.6zM31.6 36.7H31v-7c0-.3-.3-.6-.6-.6h-1.9v-7c0-.3-.3-.6-.6-.6H19c-.3 0-.6.3-.6.6v3.2h-3.2c-.3 0-.6.3-.6.6v3.2h-1.9c-.3 0-.6.3-.6.6v7h-.6c-.3 0-.6.3-.6.6v2.5c0 .3.3.6.6.6s.6-.3.6-.6V38H14v1.9c0 .3.3.6.6.6s.6-.3.6-.6V38h1.3v1.9c0 .3.3.6.6.6s.6-.3.6-.6V38h1.9v1.9c0 .3.3.6.6.6s.6-.3.6-.6V38h1.3v1.9c0 .3.3.6.6.6s.6-.3.6-.6V38h1.9v1.9c0 .3.3.6.6.6s.6-.3.6-.6V38h1.3v1.9c0 .3.3.6.6.6s.6-.3.6-.6V38H31v1.9c0 .3.3.6.6.6s.6-.3.6-.6v-2.5c.1-.4-.2-.7-.6-.7zm-6.3-6.3h1.3v1.3h-1.3v-1.3zM24 22.8V24h-1.3v-1.3H24zm-4.4 0h1.9v1.9c0 .3.3.6.6.6h2.5c.3 0 .6-.3.6-.6v-1.9h1.9v6.3h-7.6v-6.3zm-3.2 7.6h1.3v1.3h-1.3v-1.3zm-.6-3.8h2.5v2.5h-2.5v-2.5zm-2.5 10.1v-6.3h1.9v1.9c0 .3.3.6.6.6h2.5c.3 0 .6-.3.6-.6v-1.9h1.9v6.3h-7.5zm8.8 0v-6.3H24v1.9c0 .3.3.6.6.6h2.5c.3 0 .6-.3.6-.6v-1.9h1.9v6.3h-7.5z"/>
  </g>
</svg>
