<svg xmlns="http://www.w3.org/2000/svg" viewBox="0 0 35 32" width="35" height="32">
	<path fill="#e22a1b" d="M33.9,23.7h-1.1V12.9c0-0.6-0.5-1-1.1-1h-6.1V1c0-0.6-0.5-1-1.1-1H10.4C9.8,0,9.3,0.5,9.3,1v10.8H3.2c-0.6,0-1.1,0.5-1.1,1v10.8H1.1c-0.6,0-1.1,0.5-1.1,1V31c0,0.6,0.5,1,1.1,1h4.3c0.6,0,1.1-0.5,1.1-1v-1h7.9v1c0,0.6,0.5,1,1.1,1h4.3c0.6,0,1.1-0.5,1.1-1v-1h7.9v1c0,0.6,0.5,1,1.1,1h4.3c0.6,0,1.1-0.5,1.1-1v-6.3C35,24.1,34.5,23.7,33.9,23.7z M30.7,13.9v9.7H18.6v-9.7H30.7z M11.4,2.1h12.1v9.7H11.4V2.1z M4.3,13.9h12.1v9.7H4.3V13.9z M32.9,29.9h-2.1v-1c0-0.6-0.5-1-1.1-1h-10c-0.6,0-1.1,0.5-1.1,1v1h-2.1v-1c0-0.6-0.5-1-1.1-1h-10c-0.6,0-1.1,0.5-1.1,1v1H2.1v-4.2h30.7V29.9z"/>
</svg>
