<svg xmlns="http://www.w3.org/2000/svg" viewBox="0 0 50 50" width="50" height="50">
<path fill="#fff" d="M25,8c9.4,0,17,7.6,17,17c0,9.4-7.6,17-17,17c-9.4,0-17-7.6-17-17C8,15.6,15.6,8,25,8z"/>
<path fill="#e22a1b" fill-rule="evenodd" clip-rule="evenodd" d="M24.8,17.5c-3,0.1-5.5,2.4-5.8,5.4c-0.1,0.6,0,1.2,0.1,1.7l0,0c0,0,0,0.1,0,0.2c0.1,0.4,0.2,0.8,0.4,1.2c0.6,1.4,2,3.8,5.1,6.4c0.2,0.2,0.5,0.2,0.7,0c3.1-2.6,4.5-5,5.1-6.4c0.2-0.4,0.3-0.8,0.4-1.2c0-0.1,0-0.2,0-0.2l0,0c0.1-0.4,0.1-0.7,0.1-1.1C31,20.1,28.2,17.4,24.8,17.5z M25,26.5c-1.6,0-2.9-1.3-2.9-2.9c0-1.6,1.3-2.9,2.9-2.9c1.6,0,2.9,1.3,2.9,2.9C27.9,25.2,26.6,26.5,25,26.5z"/>
</svg>
