<svg xmlns="http://www.w3.org/2000/svg" viewBox="0 0 16 16">
	<path d="M14.7,2.4c-0.8-0.9-2-1.4-3.2-1.4c-0.9,0-1.8,0.3-2.5,0.9C8.6,2.1,8.3,2.4,8,2.8C7.7,2.4,7.4,2.1,7.1,1.9C6.3,1.3,5.5,1,4.5,1C3.3,1,2.1,1.5,1.3,2.4C0.5,3.3,0,4.5,0,5.8c0,1.3,0.5,2.6,1.6,3.8c1,1.1,2.3,2.3,3.9,3.6l0,0c0.5,0.5,1.2,1,1.8,1.5C7.5,14.9,7.7,15,8,15c0.3,0,0.5-0.1,0.7-0.3c0.6-0.6,1.3-1.1,1.8-1.5c1.6-1.3,3-2.5,3.9-3.6C15.5,8.3,16,7.1,16,5.8C16,4.5,15.5,3.3,14.7,2.4z M4.5,2.1c0.7,0,1.3,0.2,1.8,0.6c0.5,0.4,0.8,0.9,1,1.2C7.5,4.1,7.8,4.3,8,4.3c0.2,0,0.5-0.1,0.6-0.3c0.2-0.3,0.5-0.8,1-1.2c0.5-0.4,1.2-0.6,1.8-0.6c0.9,0,1.8,0.4,2.4,1c0.6,0.7,1,1.6,1,2.6c0,1.1-0.4,2-1.3,3.1c-0.9,1.1-2.2,2.2-3.8,3.5l0,0c-0.5,0.4-1.1,0.9-1.7,1.5c-0.6-0.5-1.2-1-1.7-1.5l0,0C4.7,11.1,3.4,10,2.5,8.9C1.5,7.8,1.1,6.8,1.1,5.8c0-1,0.3-1.9,1-2.6C2.7,2.5,3.6,2.1,4.5,2.1z"/>
</svg>
