<svg xmlns="http://www.w3.org/2000/svg" width="35.219" height="43" viewBox="0 0 35.219 43">
  <path fill="#e22a1b" d="M369.321,1718.62a0.672,0.672,0,0,0-.675.67,1.486,1.486,0,1,1-1.486-1.48,0.675,0.675,0,1,0,0-1.35,2.83,2.83,0,1,0,2.837,2.83A0.673,0.673,0,0,0,369.321,1718.62Zm0,7.9a0.672,0.672,0,0,0-.675.67,1.486,1.486,0,1,1-1.486-1.48,0.675,0.675,0,1,0,0-1.35,2.83,2.83,0,1,0,2.837,2.83A0.673,0.673,0,0,0,369.321,1726.52Zm7.926,1.43H372.2a0.675,0.675,0,1,0,0,1.35h5.044A0.675,0.675,0,1,0,377.247,1727.95Zm0-2.87H372.2a0.675,0.675,0,1,0,0,1.35h5.044A0.675,0.675,0,1,0,377.247,1725.08Zm-1.441,10.77h-3.6a0.675,0.675,0,1,0,0,1.35h3.6A0.675,0.675,0,1,0,375.806,1735.85Zm1.441-2.87H372.2a0.675,0.675,0,1,0,0,1.35h5.044A0.675,0.675,0,1,0,377.247,1732.98Zm6.484-12.93H372.2a0.681,0.681,0,0,0-.675.68,0.672,0.672,0,0,0,.675.67h11.528a0.672,0.672,0,0,0,.675-0.67A0.681,0.681,0,0,0,383.731,1720.05Zm-2.882-2.87H372.2a0.675,0.675,0,1,0,0,1.35h8.646A0.675,0.675,0,1,0,380.849,1717.18Zm-11.528,17.24a0.672,0.672,0,0,0-.675.67,1.486,1.486,0,1,1-1.486-1.48,0.675,0.675,0,1,0,0-1.35,2.83,2.83,0,1,0,2.837,2.83A0.673,0.673,0,0,0,369.321,1734.42ZM386.613,1710h-24.5a2.117,2.117,0,0,0-2.116,2.11v30.16a2.111,2.111,0,0,0,2.116,2.11h12.249a0.672,0.672,0,0,0,.675-0.67,0.681,0.681,0,0,0-.675-0.68H362.116a0.763,0.763,0,0,1-.765-0.76v-30.16a0.763,0.763,0,0,1,.765-0.76h24.5a0.764,0.764,0,0,1,.766.76v22.26a0.675,0.675,0,1,0,1.35,0v-22.26A2.117,2.117,0,0,0,386.613,1710Zm6.377,27.3a2.539,2.539,0,0,0-1.752.49,2.47,2.47,0,0,0-1.85-1.21,2.538,2.538,0,0,0-1.752.49,2.435,2.435,0,0,0-1.851-1.2,2.51,2.51,0,0,0-1.379.25v-8.57a2.481,2.481,0,0,0-2.729-2.46,2.556,2.556,0,0,0-2.224,2.56v8.6l-1.985,1.98a4.22,4.22,0,0,0-1.14,3.99l1.508,6.38a5.7,5.7,0,0,0,5.567,4.4H389.5a5.718,5.718,0,0,0,5.719-5.7v-7.44A2.556,2.556,0,0,0,392.99,1737.3Zm0.873,10a4.363,4.363,0,0,1-4.368,4.35H383.4a4.349,4.349,0,0,1-4.252-3.35l-1.508-6.39a2.891,2.891,0,0,1,.78-2.73l1.03-1.03v2.33a0.676,0.676,0,0,0,1.351,0v-12.83a1.2,1.2,0,0,1,1.007-1.22,1.119,1.119,0,0,1,.874.29,1.107,1.107,0,0,1,.371.83v11.85a0.676,0.676,0,0,0,1.351,0v-1.08a1.126,1.126,0,0,1,.37-0.83,1.077,1.077,0,0,1,.874-0.28,1.183,1.183,0,0,1,1.007,1.21v1.7a0.676,0.676,0,0,0,1.351,0v-1.08a1.134,1.134,0,0,1,1.244-1.12,1.2,1.2,0,0,1,1.008,1.22v1.7a0.676,0.676,0,0,0,1.351,0v-1.08a1.134,1.134,0,0,1,1.244-1.12,1.193,1.193,0,0,1,1.007,1.22v7.44h0Z" transform="translate(-360 -1710)"/>
</svg>
