<svg xmlns="http://www.w3.org/2000/svg" width="50" height="43" viewBox="0 0 50 43">
  <path fill="#c8e0d5" d="M1266.1,5319.22a13.754,13.754,0,0,0-19.72-.11l-1.35,1.37-1.36-1.37a13.751,13.751,0,0,0-19.61,0,14.149,14.149,0,0,0,0,19.84l17.33,17.53a5.106,5.106,0,0,0,7.27,0l17.22-17.42A14.271,14.271,0,0,0,1266.1,5319.22Zm-2.04,18.01-17.22,17.41a2.536,2.536,0,0,1-3.63,0l-17.33-17.53a11.517,11.517,0,0,1,0-16.16,11.2,11.2,0,0,1,15.98,0l1.35,1.37-2.07,2.09a1.316,1.316,0,0,0,0,1.84,1.268,1.268,0,0,0,1.81,0l5.24-5.3a11.218,11.218,0,0,1,16.08.09A11.657,11.657,0,0,1,1264.06,5337.23Zm1.48-8.79a9.569,9.569,0,0,0-2.73-6.12,9.446,9.446,0,0,0-4.1-2.43,1.279,1.279,0,0,0-1.58.9,1.3,1.3,0,0,0,.89,1.6,6.86,6.86,0,0,1,4.95,6.21,1.3,1.3,0,0,0,1.28,1.22h0.08A1.311,1.311,0,0,0,1265.54,5328.44Z" transform="translate(-1220 -5315)"/>
</svg>
