<svg xmlns="http://www.w3.org/2000/svg" width="57" height="52" viewBox="0 0 57 52">
  <path fill="#c8e0d5" d="M458.672,5361.16l-2.718-2.7a1.114,1.114,0,0,0-1.575,0,1.132,1.132,0,0,0,.007,1.59l2.717,2.7a1.1,1.1,0,0,0,1.575,0A1.133,1.133,0,0,0,458.672,5361.16Zm-5.487-5.47a1.1,1.1,0,0,0-1.575,0h0a1.121,1.121,0,0,0,0,1.58,1.106,1.106,0,0,0,1.576,0A1.12,1.12,0,0,0,453.185,5355.69Zm-9.493,5.16,10.8-10.85a4.232,4.232,0,0,0,0-5.96,1.738,1.738,0,0,1-1.634-2.9,4.224,4.224,0,0,0-3.483-4.16,5.8,5.8,0,0,1-3.057-6.79,4.211,4.211,0,0,0-1.229-2.98,4.139,4.139,0,0,0-2.967-1.23,4.08,4.08,0,0,0-2,.51l-0.108-.12a7.4,7.4,0,0,0-5.422-2.37h-8.744a1.116,1.116,0,0,0-1.114,1.12v1.46a5.126,5.126,0,0,0,.288,1.7,4.2,4.2,0,0,0-4.578.91,4.243,4.243,0,0,0-1.015,4.31,4.2,4.2,0,0,0-3.484,4.15,4.251,4.251,0,0,0,.211,1.32,4.139,4.139,0,0,0-2.251,1.17,4.22,4.22,0,0,1-2.864,5.88,4.232,4.232,0,0,0,0,5.96l2.221,2.23-10.936,10.98a1.119,1.119,0,0,0,1.574,1.59l11.043-11.09a4.241,4.241,0,0,0,2.074.55,4.15,4.15,0,0,0,2.967-1.24,4.2,4.2,0,0,0,1.223-3.15c0.056,0,.113.01,0.169,0.01a4.215,4.215,0,0,0,4.2-4.22c0-.05,0-0.11,0-0.17a0.948,0.948,0,0,0,.168.01,4.2,4.2,0,0,0,4.2-4.21c0-.06,0-0.12,0-0.17h0.167a4.177,4.177,0,0,0,2.967-1.23,4.232,4.232,0,0,0,.279-5.65l7.392-7.43a1.975,1.975,0,0,1,2.785,2.8l-1.09,1.09-3.955,3.97a1.119,1.119,0,0,0,1.575,1.59l3.954-3.97a1.95,1.95,0,0,1,2.785,0,1.977,1.977,0,0,1,0,2.79l-1.09,1.1-2.864,2.87a1.12,1.12,0,0,0,0,1.58,1.1,1.1,0,0,0,1.575,0l2.864-2.87a1.962,1.962,0,0,1,2.785,0,1.975,1.975,0,0,1,0,2.79l-1.5,1.51-1.369,1.37a1.12,1.12,0,0,0,0,1.58,1.1,1.1,0,0,0,1.575,0l1.369-1.37a1.966,1.966,0,0,1,2.784,0,1.989,1.989,0,0,1,0,2.8l-10.8,10.84a14.985,14.985,0,0,1-10.152,4.44,1.161,1.161,0,0,0-.748.33l-9.979,10.06a1.12,1.12,0,0,0,0,1.58,1.1,1.1,0,0,0,1.575,0l7.34-7.4a10.386,10.386,0,0,0,6.287,1.63l5.744,5.77a1.119,1.119,0,0,0,1.575-1.59l-6.108-6.13a1.1,1.1,0,0,0-.878-0.32l-0.353.02a8.061,8.061,0,0,1-4.647-1.01l0.716-.72A17.3,17.3,0,0,0,443.692,5360.85Zm-25.285-7.43a1.962,1.962,0,0,1-2.785,0l-3.009-3.02a1.991,1.991,0,0,1,0-2.8,1.962,1.962,0,0,1,2.785,0l3.009,3.02A1.989,1.989,0,0,1,418.407,5353.42Zm4.36-4.38a1.968,1.968,0,0,1-2.785,0l-3.009-3.02-1.5-1.5a1.989,1.989,0,0,1,0-2.8,1.962,1.962,0,0,1,2.785,0l4.5,4.52h0A1.989,1.989,0,0,1,422.767,5349.04Zm4.359-4.38a1.968,1.968,0,0,1-2.785,0l-5.594-5.62a1.971,1.971,0,1,1,2.784-2.79l2.55,2.56,3.045,3.06h0A1.975,1.975,0,0,1,427.126,5344.66Zm4.36-4.37a1.968,1.968,0,0,1-2.785,0l-5.6-5.62a0.017,0.017,0,0,1,0-.01l-1.088-1.09a1.979,1.979,0,0,1,0-2.79,1.962,1.962,0,0,1,2.785,0l6.685,6.71A1.987,1.987,0,0,1,431.486,5340.29Zm0.293-5.67-3.059-3.07a5.394,5.394,0,0,0,1.067.11h0.024l3.056-.01a1.12,1.12,0,0,0,0-2.24h0l-3.056.01h-0.014a2.822,2.822,0,0,1-2.828-2.84v-0.34h7.63a5.2,5.2,0,0,1,3.793,1.65l0.045,0.05Z" transform="translate(-402 -5324)"/>
</svg>
