<svg xmlns="http://www.w3.org/2000/svg" width="48.312" height="35.69" viewBox="0 0 48.312 35.69">
  <path fill="#e22a1b" d="M690.985,1717.85a10.07,10.07,0,1,0,10.16,10.07A10.128,10.128,0,0,0,690.985,1717.85Zm0,18.5a8.43,8.43,0,1,1,8.507-8.43A8.477,8.477,0,0,1,690.985,1736.35Zm29.555,0.77a0.826,0.826,0,0,0-.827.82v3.81H708.922V1728.3a18.2,18.2,0,0,0-1.212-6.55l0.659-.65a2.381,2.381,0,0,0,.4-2.83,20.231,20.231,0,0,0-8.05-7.98,2.437,2.437,0,0,0-2.85.4l-0.6.59a17.973,17.973,0,0,0-18.963,4.07,17.549,17.549,0,0,0-5.251,12.84,17.374,17.374,0,0,0,5.527,12.43,18.557,18.557,0,0,0,12.794,5.08H706.54a2.381,2.381,0,0,0,2.382-2.32H720.54a0.817,0.817,0,0,0,.826-0.81v-4.63A0.826,0.826,0,0,0,720.54,1737.12ZM707,1720.14a18.348,18.348,0,0,0-3.2-4.52,18.008,18.008,0,0,0-4.915-3.62l0.151-.15a0.749,0.749,0,0,1,.886-0.12,18.557,18.557,0,0,1,7.4,7.33,0.74,0.74,0,0,1-.118.88Zm-0.459,23.92H691.372c-9.057,0-16.535-7.13-16.669-15.89a15.965,15.965,0,0,1,4.768-11.67,16.277,16.277,0,0,1,11.512-4.72h0.256a16.467,16.467,0,0,1,16.03,16.52v15.04A0.723,0.723,0,0,1,706.54,1744.06Zm-6.494-27.77a0.825,0.825,0,0,0-1.159.14,0.816,0.816,0,0,0,.148,1.15,13.162,13.162,0,0,1,3.754,4.54,0.821,0.821,0,0,0,.741.45,0.787,0.787,0,0,0,.367-0.09,0.808,0.808,0,0,0,.372-1.09A14.8,14.8,0,0,0,700.046,1716.29Zm-2.955,8.14a0.84,0.84,0,0,0-.5-0.39,0.858,0.858,0,0,0-.627.09,0.8,0.8,0,0,0-.384.49,0.826,0.826,0,0,0,.082.63,5.272,5.272,0,0,1,.721,2.67,5.37,5.37,0,1,1-2.024-4.18,0.836,0.836,0,0,0,1.162-.12,0.826,0.826,0,0,0-.128-1.16,7.157,7.157,0,0,0-4.406-1.53,6.985,6.985,0,1,0,7.049,6.99A6.9,6.9,0,0,0,697.091,1724.43Z" transform="translate(-673.063 -1710)"/>
</svg>
