<svg xmlns="http://www.w3.org/2000/svg" viewBox="0 0 56 56">
	<path fill="#e22a1b" d="M56,4c0-1.1-0.4-2.1-1.2-2.8C54.1,0.4,53.1,0,52,0c-1.1,0-2.1,0.4-2.8,1.2c-0.3,0.3-0.9,1-1.2,1.3c-0.2,0.2-0.3,0.5-0.3,0.8c0,0.3,0.2,0.6,0.4,0.8c0.2,0.2,0.5,0.3,0.8,0.3c0.3,0,0.6-0.2,0.8-0.4c0.5-0.6,0.9-1,1-1.2c0.3-0.3,0.8-0.5,1.3-0.5c0.5,0,0.9,0.2,1.2,0.5c0.3,0.3,0.5,0.8,0.5,1.2c0,0.5-0.2,0.9-0.5,1.3c-0.3,0.3-1.4,1.2-3,2.3c-1.1-1.7-3-2.7-5-2.7H32.1c-1.8,0-3.6,0.7-4.9,2L0.9,33.2C0.3,33.7,0,34.5,0,35.3c0,0.8,0.3,1.6,0.9,2.1l17.7,17.7c0.6,0.6,1.3,0.9,2.1,0.9c0.8,0,1.6-0.3,2.1-0.9l26.3-26.3c1.3-1.3,2-3,2-4.9V10.7c0-0.3,0-0.7-0.1-1c1.9-1.3,3.2-2.4,3.7-2.8C55.6,6.1,56,5.1,56,4z M47.6,27.2L21.3,53.5c-0.2,0.2-0.4,0.2-0.6,0.2s-0.4-0.1-0.6-0.2L2.5,35.9c-0.2-0.2-0.2-0.4-0.2-0.6s0.1-0.4,0.2-0.6L28.8,8.4c0.9-0.9,2-1.4,3.3-1.4h13.2c1.3,0,2.5,0.7,3.1,1.8c-1.1,0.7-2.1,1.4-3.2,2c0,0,0,0,0,0c-1.6-1.6-4.1-1.6-5.7,0c-1.6,1.6-1.6,4.1,0,5.7c0.8,0.8,1.8,1.2,2.8,1.2c1.1,0,2.1-0.4,2.8-1.2c1-1,1.4-2.4,1.1-3.7c0.9-0.5,1.8-1.1,2.7-1.6l0,12.8C49,25.1,48.5,26.3,47.6,27.2z M41.4,14.1c0.2,0.4,0.6,0.6,1,0.6c0.2,0,0.3,0,0.5-0.1c0.4-0.2,0.8-0.4,1.2-0.6c-0.1,0.3-0.2,0.6-0.5,0.9c-0.7,0.7-1.8,0.7-2.5,0c-0.7-0.7-0.7-1.8,0-2.5c0.3-0.3,0.8-0.5,1.2-0.5c0.2,0,0.5,0,0.7,0.1c-0.4,0.2-0.8,0.4-1.2,0.6c-0.3,0.1-0.5,0.4-0.6,0.6C41.2,13.5,41.3,13.8,41.4,14.1z M27,18.3c-0.6,0-1.1,0.5-1.1,1.1v19c0,0.6,0.5,1.1,1.1,1.1c0.6,0,1.1-0.5,1.1-1.1v-19C28.2,18.8,27.7,18.3,27,18.3z M20.3,25c-1.1,0-2.1,0.4-2.8,1.2c-0.8,0.8-1.2,1.8-1.2,2.8c0,1.1,0.4,2.1,1.2,2.8c0.8,0.8,1.8,1.2,2.8,1.2h0c1.1,0,2.1-0.4,2.8-1.2c0.8-0.8,1.2-1.8,1.2-2.8c0-1.1-0.4-2.1-1.2-2.8C22.3,25.4,21.3,25,20.3,25z M21.5,30.2c-0.7,0.7-1.8,0.7-2.5,0c-0.7-0.7-0.7-1.8,0-2.5c0.3-0.3,0.8-0.5,1.2-0.5c0.5,0,0.9,0.2,1.2,0.5C21.8,28,22,28.5,22,29C22,29.4,21.8,29.9,21.5,30.2z M33.8,25c-1.1,0-2.1,0.4-2.8,1.2c-0.8,0.8-1.2,1.8-1.2,2.8c0,1.1,0.4,2.1,1.2,2.8c0.8,0.8,1.8,1.2,2.8,1.2c1.1,0,2.1-0.4,2.8-1.2c1.6-1.6,1.6-4.1,0-5.7C35.9,25.4,34.9,25,33.8,25z M35.1,30.2c-0.7,0.7-1.8,0.7-2.5,0c-0.7-0.7-0.7-1.8,0-2.5c0.3-0.3,0.8-0.5,1.2-0.5c0.5,0,0.9,0.2,1.2,0.5C35.8,28.4,35.8,29.5,35.1,30.2z"/>
</svg>
