<svg xmlns="http://www.w3.org/2000/svg" viewBox="0 0 56 56">
	<path fill="#e22a1b" d="M13.6,16.6c0.6,0,1-0.5,1-1c0-0.6-0.5-1-1-1c-0.6,0-1,0.5-1,1S13,16.6,13.6,16.6z M13.6,22.8c0.6,0,1-0.5,1-1s-0.5-1-1-1c-0.6,0-1,0.5-1,1S13,22.8,13.6,22.8z M43,46.2h-3.1V6.7c0-2.9-2.3-5.2-5.2-5.2c0,0-30.1,0-30.4,0C1.9,1.5,0,3.4,0,5.6v5.2c0,0.6,0.5,1,1,1h5.2v37.3c0,2.8,2.2,5.4,5.2,5.4h25.1c4,0,7.3-3.3,7.3-7.2C44,46.7,43.5,46.2,43,46.2z M6.3,9.8H2.1V5.6c0-1.1,0.9-2.1,2.1-2.1c1.1,0,2.1,0.9,2.1,2.1C6.3,5.6,6.3,9.8,6.3,9.8z M14.7,47.3v2.1c0,1.7-1.4,3.1-3.1,3.1c-1.9,0-3.1-1.6-3.1-3.3V5.6c0-0.7-0.2-1.5-0.6-2.1h26.8c1.7,0,3.1,1.4,3.1,3.1v39.5h-22C15.1,46.2,14.7,46.7,14.7,47.3z M36.7,52.4h-21c0.7-0.9,1.1-2,1.1-3.1v-1h25C41.3,50.6,39.2,52.4,36.7,52.4z M23,31.1c0,1.8,0.8,3.4,2.1,4.6v6.8c0,0.4,0.2,0.7,0.6,0.9c0.3,0.2,0.8,0.2,1.1-0.1l2.6-1.7l2.6,1.7c0.3,0.2,0.7,0.2,1.1,0.1c0.3-0.2,0.6-0.5,0.6-0.9v-6.8c1.3-1.2,2.1-2.8,2.1-4.6c0-3.4-2.8-6.2-6.3-6.2C25.9,24.9,23,27.7,23,31.1z M31.4,40.6l-1.5-1c-0.4-0.2-0.8-0.2-1.2,0l-1.5,1V37c0.7,0.2,1.4,0.4,2.1,0.4c0.7,0,1.4-0.1,2.1-0.4C31.4,37,31.4,40.6,31.4,40.6z M33.5,31.1c0,2.3-1.9,4.1-4.2,4.1s-4.2-1.8-4.2-4.1S27,27,29.3,27S33.5,28.8,33.5,31.1z M13.6,10.4h18.9c0.6,0,1-0.5,1-1c0-0.6-0.5-1-1-1H13.6c-0.6,0-1,0.5-1,1S13,10.4,13.6,10.4z M17.8,16.6h14.7c0.6,0,1-0.5,1-1c0-0.6-0.5-1-1-1H17.8c-0.6,0-1,0.5-1,1C16.8,16.2,17.2,16.6,17.8,16.6z M17.8,22.8h14.7c0.6,0,1-0.5,1-1c0-0.6-0.5-1-1-1H17.8c-0.6,0-1,0.5-1,1C16.8,22.4,17.2,22.8,17.8,22.8z M13.6,35.2h6.3c0.6,0,1-0.5,1-1c0-0.6-0.5-1-1-1h-6.3c-0.6,0-1,0.5-1,1C12.6,34.8,13,35.2,13.6,35.2z M13.6,29h6.3c0.6,0,1-0.5,1-1c0-0.6-0.5-1-1-1h-6.3c-0.6,0-1,0.5-1,1C12.6,28.6,13,29,13.6,29z M21,40.4c0-0.6-0.5-1-1-1h-6.3c-0.6,0-1,0.5-1,1s0.5,1,1,1H20C20.5,41.5,21,41,21,40.4z"/>
</svg>
