<svg xmlns="http://www.w3.org/2000/svg" width="35.22" height="34.87" viewBox="0 0 35.22 34.87">
  <path fill="#e22a1b" d="M1317.21,1718.99a0.634,0.634,0,0,0,.42.31l2.16,0.54,7.51,7.45,0.96-.95-7.65-7.58a0.683,0.683,0,0,0-.32-0.18l-2.05-.51-1.94-3.35,1.61-1.59,3.39,1.92,0.51,2.03a0.609,0.609,0,0,0,.18.31l7.65,7.58,0.96-.94-7.52-7.45-0.54-2.13a0.648,0.648,0,0,0-.32-0.42l-4.08-2.31a0.694,0.694,0,0,0-.82.1l-2.33,2.32a0.668,0.668,0,0,0-.12.8Zm8.21,16.02,0.96,0.95,12.97-12.85-0.96-.95Zm-1.21,1.22h0a0.671,0.671,0,0,0-.58-0.32h-3.5a0.671,0.671,0,0,0-.58.32l-1.75,2.89a0.659,0.659,0,0,0,0,.69l1.75,2.89a0.68,0.68,0,0,0,.58.33h3.5a0.68,0.68,0,0,0,.58-0.33l1.75-2.89a0.659,0.659,0,0,0,0-.69Zm0.38,3.24-1.34,2.22h-2.74l-1.34-2.22,1.34-2.22h2.74Zm24.02-1.06-6.99-6.93a0.688,0.688,0,0,0-.96,0l-0.29.29a0.587,0.587,0,0,1-.8,0,0.568,0.568,0,0,1,0-.79l0.3-.29a0.689,0.689,0,0,0,0-.95l-1.28-1.26,2.96-2.93a6.69,6.69,0,0,0,1.34.13h0.02a7.093,7.093,0,0,0,4.99-2.03,7.034,7.034,0,0,0,1.87-6.7,0.68,0.68,0,0,0-.82-0.48,0.763,0.763,0,0,0-.32.17l-3.59,3.56-2.78-.92-0.93-2.76,3.59-3.56a0.664,0.664,0,0,0,0-.94,0.7,0.7,0,0,0-.31-0.18,7.092,7.092,0,0,0-8.6,5.07,6.717,6.717,0,0,0-.08,3.07l-12.71,12.59a6.69,6.69,0,0,0-1.34-.13,7.03,7.03,0,1,0,7.1,7.03,6.6,6.6,0,0,0-.14-1.33l2.96-2.93,1.27,1.26a0.688,0.688,0,0,0,.96,0l0.29-.29a0.587,0.587,0,0,1,.8,0,0.555,0.555,0,0,1,0,.79l-0.29.29a0.658,0.658,0,0,0,0,.95l6.96,6.89a4.829,4.829,0,0,0,6.79.03A4.726,4.726,0,0,0,1348.61,1738.41Zm-11.98-2.01a1.884,1.884,0,0,0-.67-1.29,1.938,1.938,0,0,0-2.4-.05l-0.81-.8,4.89-4.83,0.81,0.8a1.906,1.906,0,0,0,2.68,2.66l6.49,6.43c0.05,0.05.09,0.09,0.14,0.15l-4.86,4.83c-0.06-.05-0.11-0.1-0.16-0.14l-6.49-6.44A1.841,1.841,0,0,0,1336.63,1736.4Zm4.08-11.9-13.09,12.96a0.659,0.659,0,0,0-.17.63,5.641,5.641,0,0,1-.64,4.34,5.724,5.724,0,0,1-3.54,2.63,5.787,5.787,0,0,1-4.38-.63,5.711,5.711,0,0,1,1.53-10.48,6.13,6.13,0,0,1,1.42-.17,6.282,6.282,0,0,1,1.43.17,0.684,0.684,0,0,0,.64-0.17l13.24-13.12a0.665,0.665,0,0,0,.17-0.63,5.665,5.665,0,0,1,4.12-6.89,5.963,5.963,0,0,1,1.57-.18l-2.93,2.91a0.664,0.664,0,0,0-.17.68l1.17,3.47a0.666,0.666,0,0,0,.43.42l3.5,1.16a0.677,0.677,0,0,0,.69-0.16l2.93-2.9v0.11a5.685,5.685,0,0,1-5.68,5.69,5.43,5.43,0,0,1-1.45-.17,0.684,0.684,0,0,0-.64.17l-0.15.16h0Zm5.69,20.44a3.594,3.594,0,0,1-1.21.22h-0.01a3.571,3.571,0,0,1-1.07-.17l4.35-4.31A3.409,3.409,0,0,1,1346.4,1744.94Zm-1.22-4.15-5.96-5.91-0.96.95,5.97,5.91Z" transform="translate(-1314.78 -1711.63)"/>
</svg>
