<svg xmlns="http://www.w3.org/2000/svg" width="52" height="63" viewBox="0 0 52 63">
  <path fill="#133d52" d="M859.923,5371.08l-8.289-20.14a1,1,0,1,0-1.846.77l7.493,18.21-6.835-2a1,1,0,0,0-1.153.48l-3.433,6.28-8.041-19.53a20.206,20.206,0,1,0-19.968-7.81l-9.774,23.74a1.018,1.018,0,0,0,.178,1.06,1,1,0,0,0,1.023.29l8.064-2.35,4.05,7.4a1,1,0,0,0,.875.52h0.055a0.993,0.993,0,0,0,.868-0.62l7.745-18.81a1.012,1.012,0,0,0-.541-1.32,1,1,0,0,0-1.3.55l-6.949,16.88-3.433-6.28a1,1,0,0,0-1.153-.48l-6.836,2,8.579-20.84a20.045,20.045,0,0,0,14.7,6.43c0.6,0,1.19-.03,1.775-0.08l9.035,21.95a0.993,0.993,0,0,0,.868.62h0.055a1,1,0,0,0,.875-0.52l4.05-7.4,8.064,2.35a1,1,0,0,0,1.023-.29A1.018,1.018,0,0,0,859.923,5371.08Zm-44.057-35.82A18.134,18.134,0,1,1,834,5353.5,18.215,18.215,0,0,1,815.866,5335.26Zm29.679-3.78a1.008,1.008,0,0,0-.785-0.68l-6.724-1.13-3.15-6.09a1,1,0,0,0-1.772,0l-3.151,6.09-6.723,1.13a1.008,1.008,0,0,0-.785.68,1.018,1.018,0,0,0,.238,1.02l4.775,4.89-1,6.79a1.006,1.006,0,0,0,.4.96,0.988,0.988,0,0,0,1.033.08l6.1-3.05,6.1,3.05a1.009,1.009,0,0,0,.446.11,1.044,1.044,0,0,0,.587-0.19,1.006,1.006,0,0,0,.4-0.96l-1-6.79,4.775-4.89A1.018,1.018,0,0,0,845.545,5331.48Zm-6.788,4.86a1.007,1.007,0,0,0-.275.85l0.8,5.37-4.832-2.42a1.04,1.04,0,0,0-.89,0l-4.832,2.42,0.8-5.37a1,1,0,0,0-.275-0.85l-3.781-3.88,5.323-.89a1.02,1.02,0,0,0,.72-0.53l2.5-4.82,2.494,4.82a1.024,1.024,0,0,0,.721.53l5.323,0.89Zm10.378-.07a1,1,0,0,0-1.122.86,14.221,14.221,0,1,1,0-3.75,0.992,0.992,0,0,0,1.121.86,1,1,0,0,0,.859-1.13,16.235,16.235,0,1,0,0,4.29A1,1,0,0,0,849.135,5336.27Z" transform="translate(-808 -5315)"/>
</svg>
