<svg xmlns="http://www.w3.org/2000/svg" viewBox="0 0 38 38" width="38px" height="38px">
	<path fill="#e22a1b" d="M18.8,24.8c-1.1,0-1.9,0.9-1.9,1.9c0,1.1,0.9,1.9,1.9,1.9s1.9-0.9,1.9-1.9C20.8,25.6,19.9,24.8,18.8,24.8z M18.8,27.2c-0.2,0-0.4-0.2-0.4-0.4c0-0.2,0.2-0.4,0.4-0.4s0.4,0.2,0.4,0.4C19.3,27,19.1,27.2,18.8,27.2z M24.3,22.1c-0.2,0-0.4,0.1-0.5,0.2c-0.1,0.1-0.2,0.3-0.2,0.5c0,0.2,0.1,0.4,0.2,0.5c0.1,0.1,0.3,0.2,0.5,0.2s0.4-0.1,0.5-0.2c0.1-0.1,0.2-0.3,0.2-0.5c0-0.2-0.1-0.4-0.2-0.5C24.6,22.2,24.5,22.1,24.3,22.1z M34.3,10.7h-0.8L23,0.2c-0.3-0.3-0.8-0.3-1,0l-2.7,2.7L8.6,0C8.2-0.1,7.8,0.2,7.7,0.5L4.9,10.7H3.1c-1.7,0-3.1,1.4-3.1,3.1c0,0,0,0.1,0,0.1c0,0,0,0,0,0.1v20.3c0,2,1.7,3.7,3.7,3.7h26.6c0,0,0,0,0,0h4c2,0,3.7-1.7,3.7-3.7V14.4C38,12.4,36.3,10.7,34.3,10.7z M20,4.3C20,4.3,20,4.3,20,4.3l2.5-2.5l9.7,9.7l-3.9,3.9h-1.4l1.8-1.8c0.3-0.3,0.3-0.8,0-1c-0.6-0.6-0.6-1.6,0-2.2c0.3-0.3,0.3-0.8,0-1l-4.1-4.1c-0.3-0.3-0.8-0.3-1,0c-0.6,0.6-1.6,0.6-2.2,0c-0.3-0.3-0.8-0.3-1,0L10.2,15.4H8.9L20,4.3z M17.9,12.6c-1.7,0-3.1,1.2-3.5,2.8h-2.1l8.6-8.6c1,0.6,2.1,0.6,3.1,0l3.1,3.1c-0.6,1-0.6,2.1,0,3.1l-2.4,2.4h-3.5C21,13.8,19.5,12.6,17.9,12.6z M19.8,15.4h-3.8c0.3-0.8,1-1.3,1.9-1.3C18.7,14.1,19.5,14.6,19.8,15.4z M8.1,14.1l2-7.3c0.5,0,1.1-0.1,1.6-0.4c0.5-0.3,0.9-0.7,1.1-1.1l3.3,0.9L11.2,11L8.1,14.1z M8.9,1.7l9.2,2.5l-0.8,0.8l-4.8-1.3c-0.2-0.1-0.4,0-0.6,0.1c-0.2,0.1-0.3,0.3-0.3,0.5c-0.1,0.4-0.4,0.7-0.7,0.9c-0.4,0.2-0.8,0.3-1.2,0.2C9.3,5.1,8.9,5.4,8.8,5.7l-2.6,9.7h-1L8.9,1.7z M3.1,12.2h1.4l-0.9,3.3H3.1c-0.9,0-1.6-0.7-1.6-1.6C1.5,12.9,2.2,12.2,3.1,12.2z M36.5,34.3c0,1.2-1,2.2-2.2,2.2h-1c0.5-0.6,0.7-1.4,0.7-2.2v-3h0.4c0.8,0,1.5-0.2,2.1-0.7V34.3z M36.5,27.7c0,1.1-0.9,2.1-2.1,2.1H18.9c-1.7,0-3.1-1.4-3.1-3.1c0-1.7,1.4-3.1,3.1-3.1h2.2c0.4,0,0.7-0.3,0.7-0.7c0-0.4-0.3-0.7-0.7-0.7h-2.2c-2.5,0-4.6,2.1-4.6,4.6c0,2.5,2.1,4.6,4.6,4.6h13.7v3c0,1.2-1,2.2-2.2,2.2H5v-8.4c0-0.4-0.3-0.7-0.7-0.7s-0.7,0.3-0.7,0.7v8.4c-1.2-0.1-2.1-1-2.1-2.2V16.5c0.5,0.3,1,0.5,1.6,0.5h27.2c1.2,0,2.2,1,2.2,2.2v3h-5.4c-0.4,0-0.7,0.3-0.7,0.7s0.3,0.7,0.7,0.7h7.6c0.6,0,1.3-0.2,1.8-0.5V27.7z M36.5,20.3c0,1-0.8,1.8-1.8,1.8H34v-3c0-2-1.6-3.7-3.6-3.7l3.3-3.3h0.7c1.2,0,2.2,1,2.2,2.2V20.3z M4.3,24.5c-0.2,0-0.4,0.1-0.5,0.2c-0.1,0.1-0.2,0.3-0.2,0.5c0,0.2,0.1,0.4,0.2,0.5C3.9,25.9,4.1,26,4.3,26c0.2,0,0.4-0.1,0.5-0.2C5,25.6,5,25.5,5,25.3c0-0.2-0.1-0.4-0.2-0.5C4.7,24.6,4.5,24.5,4.3,24.5z"/>
</svg>
