<svg xmlns="http://www.w3.org/2000/svg" width="51.597" height="27.56" viewBox="0 0 51.597 27.56">
  <path fill="#e22a1b" d="M998.472,1741.73h-0.008A0.76,0.76,0,1,0,998.472,1741.73Zm6.458,0h0a0.76,0.76,0,1,0,.76.76A0.76,0.76,0,0,0,1004.93,1741.73Zm26.66,0h-0.01a0.751,0.751,0,0,0-.75.76A0.76,0.76,0,1,0,1031.59,1741.73Zm8.13-9.22-1.02-1.02-2.04-6.19a0.77,0.77,0,0,0,.52-0.73,0.751,0.751,0,0,0-.75-0.76h-7.32v-3.31a1.575,1.575,0,0,0-1.57-1.58H990.386a1.574,1.574,0,0,0-1.563,1.58v17.92a1.565,1.565,0,0,0,1.563,1.57h0.86v1.68a1.575,1.575,0,0,0,1.564,1.58h1.74a4.006,4.006,0,0,0,3.914,3.26,3.964,3.964,0,0,1,6.466,0,4,4,0,0,0,3.91-3.26h18.83a3.983,3.983,0,0,0,7.9-.76v-0.05h3.28a1.581,1.581,0,0,0,1.57-1.58v-6.66A2.41,2.41,0,0,0,1039.72,1732.51Zm-45.17,9.22h-1.74a0.058,0.058,0,0,1-.052-0.06v-1.68h2.584A4.038,4.038,0,0,0,994.55,1741.73Zm3.914,3.25a2.5,2.5,0,0,1-.015-4.99h0.031A2.5,2.5,0,0,1,998.464,1744.98Zm6.466,0a2.5,2.5,0,0,1-.02-4.99h0.03A2.5,2.5,0,0,1,1004.93,1744.98Zm22.74-3.25h-18.83a4.011,4.011,0,0,0-.79-1.74h14.65a0.76,0.76,0,0,0,0-1.52H990.386a0.05,0.05,0,0,1-.052-0.05V1720.5a0.05,0.05,0,0,1,.052-0.05h37.154a0.056,0.056,0,0,1,.06.05v17.97h-1.67a0.76,0.76,0,0,0,0,1.52h2.53A4.011,4.011,0,0,0,1027.67,1741.73Zm9.6-9.78h-4.88a0.047,0.047,0,0,1-.05-0.05v-3.31h3.81Zm-5.69,13.03a2.5,2.5,0,0,1-.01-4.99h0.02A2.5,2.5,0,0,1,1031.58,1744.98Zm7.32-4.12a0.047,0.047,0,0,1-.05.05h-3.6a4,4,0,0,0-3.67-2.44h-2.47v-13.08h0a0.056,0.056,0,0,1,.05-0.06h5.92l0.57,1.74h-4.07a0.751,0.751,0,0,0-.75.76v4.07a1.573,1.573,0,0,0,1.56,1.58h6.15l0.11,0.11a0.886,0.886,0,0,1,.25.62v1.82h-0.86a0.76,0.76,0,0,0,0,1.52h0.86v3.31Zm-13.78-5.65H992.81a0.758,0.758,0,0,0-.756.76,0.766,0.766,0,0,0,.756.77h32.31a0.768,0.768,0,0,0,.76-0.77A0.76,0.76,0,0,0,1025.12,1735.21Z" transform="translate(-988.813 -1718.94)"/>
</svg>
