<svg xmlns="http://www.w3.org/2000/svg" viewBox="0 0 56 56">
	<path fill="#e22a1b" d="M38,24.9l-9.2-11.2v-9C28.8,2.1,26.6,0,24,0H4.8C2.2,0,0,2.1,0,4.7v33.6c0,2.6,2.2,4.7,4.8,4.7h8.6v2.5c0,5.9,4.9,10.6,10.9,10.6h15c0.5,0,1-0.4,1-0.9V31.3C40.3,29,39.5,26.7,38,24.9z M23,1.9h1c1.6,0,2.9,1.3,2.9,2.8v24.5l-3.8-4V1.9z M18.2,1.9h2.9v21.3l-1.6-1.7c-0.4-0.4-0.8-0.7-1.2-0.9V1.9z M4.8,41.1c-1.6,0-2.9-1.3-2.9-2.8V4.7c0-1.5,1.3-2.8,2.9-2.8h11.5v18.3c-1.2,0-2.3,0.4-3.1,1.2c0,0-0.1,0.1-0.1,0.1c-1.6,1.6-1.7,4.1-0.3,5.8l3.5,4v9.8H4.8z M38.4,54.1h-14c-5,0-9-3.9-9-8.7v-2.5h6.2c1.1,3.8,4,6.9,7.8,8.3l0.7-1.7C25.8,48,23,44,23,39.6v-3.2c0-0.2-0.1-0.4-0.2-0.6L14.3,26c-0.8-1-0.8-2.4,0.2-3.4c0.5-0.4,1.1-0.7,1.8-0.7c0.7,0,1.3,0.3,1.8,0.8l12.9,13.3l1.4-1.3l-3.6-3.7V16.7l7.7,9.4c1.2,1.5,1.9,3.3,1.9,5.3V54.1z M21.2,41.1h-3v-7.6l2.9,3.3v2.9C21.1,40.1,21.1,40.6,21.2,41.1z M6.7,4.7H4.8v12.1h1.9V4.7z M11.5,4.7H9.6v7.5h1.9V4.7z M11.5,30.8H5.8c-0.5,0-1,0.4-1,0.9v5.6c0,0.5,0.4,0.9,1,0.9h5.8c0.5,0,1-0.4,1-0.9v-5.6C12.5,31.2,12,30.8,11.5,30.8z M10.5,36.4H6.7v-3.7h3.8V36.4z"/>
</svg>
