<svg xmlns="http://www.w3.org/2000/svg" viewBox="0 0 32 35" width="32" height="35">
	<path fill="#e22a1b" d="M22.7,15c0-0.8-0.6-1.4-1.4-1.4H7c-0.8,0-1.4,0.6-1.4,1.4c0,0.8,0.6,1.4,1.4,1.4h14.4C22.1,16.4,22.7,15.8,22.7,15z M7,19.1c-0.8,0-1.4,0.6-1.4,1.4c0,0.8,0.6,1.4,1.4,1.4h8.7c0.8,0,1.4-0.6,1.4-1.4c0-0.8-0.6-1.4-1.4-1.4H7z M10.2,32.3H5.6c-1.5,0-2.8-1.2-2.8-2.7V5.5C2.8,4,4,2.7,5.6,2.7h17.1c1.5,0,2.8,1.2,2.8,2.7v8.4c0,0.8,0.6,1.4,1.4,1.4c0.8,0,1.4-0.6,1.4-1.4V5.5c0-3-2.5-5.5-5.6-5.5H5.6C2.5,0,0,2.5,0,5.5v24.1c0,3,2.5,5.5,5.6,5.5h4.7c0.8,0,1.4-0.6,1.4-1.4C11.6,32.9,11,32.3,10.2,32.3z M30.8,19.8c-1.6-1.6-4.3-1.6-5.9,0l-7.7,7.5c-0.2,0.2-0.3,0.4-0.3,0.6l-1.7,5.4c-0.1,0.5,0,1,0.3,1.4c0.3,0.3,0.6,0.4,1,0.4c0.1,0,0.2,0,0.4,0l5.6-1.5c0.2-0.1,0.4-0.2,0.6-0.4l7.6-7.5C32.4,24,32.4,21.4,30.8,19.8z M21.4,30.9l-2.8,0.8l0.8-2.7l5.2-5.1l2,1.9L21.4,30.9z M28.8,23.7l-0.3,0.3l-2-1.9l0.3-0.3c0.5-0.5,1.4-0.5,2,0C29.3,22.3,29.3,23.1,28.8,23.7z M21.3,8.2H7c-0.8,0-1.4,0.6-1.4,1.4c0,0.8,0.6,1.4,1.4,1.4h14.4c0.8,0,1.4-0.6,1.4-1.4C22.7,8.8,22.1,8.2,21.3,8.2z"/>
</svg>
