<svg xmlns="http://www.w3.org/2000/svg" viewBox="0 0 43 43" width="43" height="43">
	<path fill="#e22a1b" d="M41,31.4L27.8,18.2l1.8-6.6c0.1-0.5,0-1-0.4-1.4l-9.8-9.8C19,0.1,18.5-0.1,18,0l-7.4,2c-0.5,0.1-0.9,0.5-1,1c-0.1,0.5,0,1,0.4,1.4l7.4,7.4l-1.2,4.5l-4.5,1.2L4.4,10C4,9.7,3.5,9.5,3,9.7c-0.5,0.1-0.9,0.5-1,1l-2,7.4c-0.1,0.5,0,1,0.4,1.4l9.8,9.8c0.4,0.4,0.9,0.5,1.4,0.4l6.6-1.8L31.4,41c1.3,1.3,3,2,4.8,2h0c1.8,0,3.5-0.7,4.8-2C43.6,38.3,43.6,34,41,31.4z M39,39c-0.8,0.8-1.8,1.2-2.8,1.2c0,0,0,0,0,0c-1.1,0-2.1-0.4-2.8-1.2L19.6,25.2c-0.3-0.3-0.6-0.4-1-0.4c-0.1,0-0.2,0-0.4,0l-6.6,1.8L3,18l1.1-4.2l6.2,6.2c0.4,0.4,0.9,0.5,1.4,0.4l6-1.6c0.5-0.1,0.9-0.5,1-1l1.6-6c0.1-0.5,0-1-0.4-1.4l-6.2-6.2L18,3l8.7,8.7l-1.8,6.6c-0.1,0.5,0,1,0.4,1.4L39,33.4C40.6,34.9,40.6,37.5,39,39z"/>
</svg>
