<svg xmlns="http://www.w3.org/2000/svg" viewBox="0 0 38 38" width="38" height="38">
	<path fill="#e22a1b" d="M1.5,14.6h1.5v20.5H1.5V38h2.9h5.8h5.8h5.8h5.8h5.8h2.9v-2.9h-1.5V14.6h1.5c0.5,0,0.9-0.2,1.2-0.7c0.4-0.7,0.3-1.6-0.4-2L19.8,0.2c-0.5-0.3-1.1-0.3-1.6,0L0.7,11.9C0.2,12.2,0,12.7,0,13.1C0,14,0.7,14.6,1.5,14.6z M14.6,14.6v20.5h-2.9V14.6H14.6z M26.3,14.6v20.5h-2.9V14.6H26.3z M20.5,29.2h-2.9V14.6h2.9V29.2z M8.8,29.2H5.8V14.6h2.9V29.2L8.8,29.2z M5.8,35.1v-2.9h2.9v2.9H5.8z M17.5,35.1v-2.9h2.9v2.9H17.5z M29.2,35.1v-2.9h2.9v2.9H29.2z M32.2,29.2h-2.9V14.6h2.9V29.2z M19,3.2l12.7,8.5h-3.9h-5.8h-5.8h-5.8H6.3L19,3.2z"/>
</svg>
