<svg xmlns="http://www.w3.org/2000/svg" viewBox="0 0 43 35" width="43" height="35">
	<path fill="#e22a1b" d="M2.7,8.2h34.8v8.1h2.7V0H0v29.9h20.1v-2.7H2.7V8.2z M2.7,2.7h34.8v2.8H2.7V2.7z M11.2,17.3c-0.7-0.6-1.6-1-2.7-1c-2.2,0-4,1.8-4,4c0,2.2,1.8,4,4,4c1,0,2-0.4,2.7-1c0.7,0.6,1.6,1,2.7,1c2.2,0,4-1.8,4-4c0-2.2-1.8-4-4-4C12.8,16.3,11.9,16.7,11.2,17.3z M8.5,21.7c-0.7,0-1.3-0.6-1.3-1.3c0-0.7,0.6-1.3,1.3-1.3c0.7,0,1.3,0.6,1.3,1.3C9.8,21.1,9.2,21.7,8.5,21.7z M15.2,20.3c0,0.7-0.6,1.3-1.3,1.3c-0.7,0-1.3-0.6-1.3-1.3c0-0.7,0.6-1.3,1.3-1.3C14.6,19,15.2,19.6,15.2,20.3z M41.9,26c0.6,0,1.1-0.5,1.1-1.1v-4.5c0-0.6-0.5-1.1-1.1-1.1H26.3c-0.6,0-1.1,0.5-1.1,1.1v3.4h-1.1c-0.6,0-1.1,0.5-1.1,1.1v4.5c0,0.6,0.5,1.1,1.1,1.1h1.1v3.4c0,0.6,0.5,1.1,1.1,1.1h15.5c0.6,0,1.1-0.5,1.1-1.1v-4.5c0-0.6-0.5-1.1-1.1-1.1h-1.1V26H41.9z M27.5,21.6h8.9v2.2h-8.9V21.6z M25.2,28.3V26h8.9v2.2H25.2z M36.3,32.8h-8.9v-2.2h8.9V32.8z M36.3,26h2.2v2.2h-2.2V26z M40.8,32.8h-2.2v-2.2h2.2V32.8z M38.6,23.8v-2.2h2.2v2.2H38.6z"/>
</svg>
