<svg xmlns="http://www.w3.org/2000/svg" viewBox="0 0 15 15">
	<path d="M10.1,0.5H4.9c-2.4,0-4.4,2-4.4,4.4v5.2c0,2.4,2,4.4,4.4,4.4h5.3c2.4,0,4.4-2,4.4-4.4V4.9C14.5,2.5,12.5,0.5,10.1,0.5z M13.2,10.1c0,1.7-1.4,3.1-3.1,3.1H4.9c-1.7,0-3.1-1.4-3.1-3.1V4.9c0-1.7,1.4-3.1,3.1-3.1h5.3c1.7,0,3.1,1.4,3.1,3.1V10.1z M7.5,4C5.6,4,4,5.6,4,7.5C4,9.4,5.6,11,7.5,11C9.4,11,11,9.4,11,7.5C11,5.6,9.4,4,7.5,4z M7.5,9.7c-1.2,0-2.2-1-2.2-2.2c0-1.2,1-2.2,2.2-2.2s2.2,1,2.2,2.2C9.7,8.7,8.7,9.7,7.5,9.7z M11.3,3.3c-0.3,0-0.5,0.2-0.5,0.5c0,0.3,0.2,0.5,0.5,0.5c0.3,0,0.5-0.2,0.5-0.5C11.7,3.5,11.5,3.3,11.3,3.3z"/>
</svg>
