<?xml version="1.0" encoding="utf-8"?>
<!-- Generator: Adobe Illustrator 19.2.1, SVG Export Plug-In . SVG Version: 6.00 Build 0)  -->
<svg version="1.1" id="Слой_1" xmlns="http://www.w3.org/2000/svg" xmlns:xlink="http://www.w3.org/1999/xlink" x="0px" y="0px"
	 viewBox="0 0 18 18" style="enable-background:new 0 0 18 18;" xml:space="preserve">
<style type="text/css">
	.st0{fill:#0D0F0F;}
</style>
<path d="M13.6,17.4c-0.6,0-1.2-0.2-1.9-0.5C8.1,15.4,2.5,9.8,1.1,6.3c-0.6-1.4-0.6-2.6,0-3.5C1.4,2.3,3,0.5,4.3,0.6c0.4,0,0.8,0.2,1.1,0.6c0.5,0.4,2.1,2.4,2.2,3c0.1,0.7-0.2,1.2-0.4,1.6C7,6.1,6.9,6.4,7,6.6c0.9,2.1,2.3,3.5,4.4,4.4c0.3,0.1,0.5,0,0.9-0.2c0.4-0.2,0.9-0.5,1.6-0.4c0.6,0.1,2.6,1.7,3,2.2c0.3,0.4,0.5,0.7,0.6,1.1c0.1,1.4-1.8,3-2.2,3.2C14.7,17.3,14.2,17.4,13.6,17.4z M4.2,1.6c-0.7,0-2,1.3-2.3,1.7c0,0,0,0,0,0C1.5,4,1.5,4.8,2,5.9C3.3,9.2,8.7,14.6,12.1,16c1.1,0.5,1.9,0.5,2.5,0.1c0.4-0.2,1.8-1.6,1.8-2.3c0-0.1-0.1-0.3-0.3-0.5c-0.5-0.5-2.2-1.8-2.5-1.9c-0.2,0-0.5,0.1-0.8,0.3c-0.4,0.2-1,0.6-1.7,0.3c-2.4-1-4-2.6-5-5c-0.3-0.8,0-1.3,0.3-1.8c0.2-0.4,0.3-0.6,0.3-0.9c-0.1-0.3-1.4-2-1.9-2.5C4.5,1.7,4.3,1.6,4.2,1.6C4.2,1.6,4.2,1.6,4.2,1.6z M1.5,3.1L1.5,3.1L1.5,3.1z"/>
</svg>
