<svg xmlns="http://www.w3.org/2000/svg" viewBox="0 0 25 21" width="25" height="21">
	<path d="M6.3,9.5C8,9.5,9.4,8,9.4,6.3c0-1.7-1.4-3.2-3.1-3.2c-1.7,0-3.1,1.4-3.1,3.2C3.1,8,4.5,9.5,6.3,9.5z M6.3,5.3c0.6,0,1,0.5,1,1.1c0,0.6-0.5,1-1,1c-0.6,0-1-0.5-1-1C5.2,5.7,5.7,5.3,6.3,5.3z M24,0H1C0.5,0,0,0.5,0,1.1V20c0,0.6,0.5,1,1,1H24c0.6,0,1-0.5,1-1V1.1C25,0.5,24.5,0,24,0z M22.9,18.9H2.1V2.1h20.8V18.9z M4.5,16.5c0.4,0.4,1.1,0.4,1.5,0l4.5-4.5l2.4,2.4c0.4,0.4,1.1,0.4,1.5,0c0.4-0.4,0.4-1.1,0-1.5l-0.5-0.5l2-3.4l3.2,3.2c0.4,0.4,1.1,0.4,1.5,0c0.4-0.4,0.4-1.1,0-1.5l-4.2-4.2c-0.5-0.5-1.3-0.4-1.6,0.2l-2.4,4.1l-1.1-1.1c-0.4-0.4-1.1-0.4-1.5,0L4.5,15C4.1,15.4,4.1,16.1,4.5,16.5z"/>
</svg>
