<svg xmlns="http://www.w3.org/2000/svg" viewBox="0 0 9 10" height="10px" width="9px">
	<path fill="#9c9c9c" d="M0.2,8.4h1.6v1.4c0,0.1,0,0.1,0.1,0.2C1.9,10,2,10,2,10h1.2c0.1,0,0.1,0,0.2-0.1c0,0,0.1-0.1,0.1-0.2V8.4H7c0.1,0,0.1,0,0.2-0.1c0,0,0.1-0.1,0.1-0.2V7.3c0-0.1,0-0.1-0.1-0.2C7.1,7.1,7,7,7,7H3.4V6.2h2.4c0.9,0,1.7-0.3,2.3-0.9C8.7,4.8,9,4,9,3.1c0-0.9-0.3-1.7-0.9-2.2C7.5,0.3,6.8,0,5.8,0H2C2,0,1.9,0,1.9,0.1c0,0-0.1,0.1-0.1,0.2v4.5H0.2c-0.1,0-0.1,0-0.2,0.1C0,4.8,0,4.9,0,4.9V6C0,6,0,6.1,0.1,6.1c0,0,0.1,0.1,0.2,0.1h1.6V7H0.2c-0.1,0-0.1,0-0.2,0.1C0,7.2,0,7.2,0,7.3v0.9c0,0.1,0,0.1,0.1,0.2C0.1,8.4,0.2,8.4,0.2,8.4z M3.4,1.5h2.3c0.5,0,0.9,0.1,1.2,0.4c0.3,0.3,0.5,0.7,0.5,1.2c0,0.5-0.2,0.9-0.5,1.2C6.6,4.5,6.2,4.7,5.7,4.7H3.4V1.5z"/>
</svg>
