<svg xmlns="http://www.w3.org/2000/svg" viewBox="0 0 15 15">
	<path d="M14.9,11.1c0,0,0-0.1-0.1-0.1c-0.3-0.5-0.8-1.1-1.5-1.8l0,0l0,0l0,0h0c-0.3-0.3-0.5-0.6-0.6-0.7c-0.2-0.2-0.2-0.4-0.1-0.7c0.1-0.2,0.3-0.5,0.7-1.1c0.2-0.3,0.4-0.5,0.5-0.7C14.7,4.8,15.1,4,15,3.6l0-0.1c0,0-0.1-0.1-0.2-0.1c-0.1,0-0.3,0-0.5,0l-2.2,0c0,0-0.1,0-0.2,0c-0.1,0-0.1,0-0.1,0l0,0l0,0c0,0-0.1,0-0.1,0.1c0,0-0.1,0.1-0.1,0.1c-0.2,0.7-0.5,1.3-0.8,1.8c-0.2,0.3-0.4,0.6-0.5,0.9C9.9,6.7,9.8,6.9,9.7,7C9.6,7.1,9.5,7.2,9.4,7.3S9.2,7.4,9.2,7.4c0,0-0.1,0-0.1,0C9,7.3,8.9,7.2,8.9,7.2c0-0.1-0.1-0.2-0.1-0.3c0-0.1,0-0.2,0-0.3c0-0.1,0-0.2,0-0.4c0-0.2,0-0.3,0-0.3c0-0.2,0-0.4,0-0.7c0-0.2,0-0.4,0-0.6c0-0.1,0-0.3,0-0.5c0-0.2,0-0.3,0-0.4c0-0.1,0-0.2-0.1-0.3c0-0.1-0.1-0.2-0.2-0.2c-0.1,0-0.2-0.1-0.3-0.1C8,3,7.6,3,7.2,3c-1,0-1.6,0.1-1.9,0.2C5.2,3.3,5.1,3.3,5.1,3.4C5,3.6,4.9,3.6,5,3.6c0.3,0,0.5,0.2,0.7,0.4l0,0.1c0,0.1,0.1,0.2,0.1,0.4c0,0.2,0.1,0.4,0.1,0.6c0,0.4,0,0.7,0,1S5.9,6.6,5.8,6.8c0,0.2-0.1,0.3-0.1,0.4c0,0.1-0.1,0.2-0.1,0.2c0,0,0,0,0,0c-0.1,0-0.1,0-0.2,0c-0.1,0-0.2,0-0.3-0.1C5,7.2,4.9,7.1,4.8,7C4.7,6.8,4.6,6.7,4.4,6.4C4.3,6.2,4.1,5.9,4,5.6L3.9,5.3C3.8,5.2,3.7,4.9,3.5,4.7C3.4,4.4,3.3,4.1,3.2,3.8c0-0.1-0.1-0.2-0.2-0.3l0,0c0,0-0.1,0-0.1-0.1c-0.1,0-0.1,0-0.2-0.1l-2.1,0c-0.2,0-0.4,0.1-0.4,0.2l0,0c0,0,0,0.1,0,0.1C0,3.8,0,3.9,0,4c0.3,0.8,0.7,1.5,1,2.2c0.4,0.7,0.7,1.3,1,1.7c0.3,0.4,0.5,0.9,0.8,1.2c0.3,0.4,0.5,0.6,0.6,0.7c0.1,0.1,0.2,0.2,0.2,0.2l0.2,0.2c0.1,0.1,0.3,0.3,0.6,0.5c0.2,0.2,0.5,0.4,0.8,0.5c0.3,0.2,0.6,0.3,1,0.4S7,12,7.3,12h0.9c0.2,0,0.3-0.1,0.4-0.2l0,0c0,0,0-0.1,0.1-0.2c0-0.1,0-0.1,0-0.2c0-0.2,0-0.4,0.1-0.6c0-0.2,0.1-0.3,0.1-0.4c0-0.1,0.1-0.2,0.2-0.2s0.1-0.1,0.1-0.1c0,0,0,0,0.1,0c0.1,0,0.3,0,0.4,0.1c0.2,0.1,0.3,0.3,0.5,0.5c0.1,0.2,0.3,0.4,0.5,0.6c0.2,0.2,0.4,0.4,0.5,0.5l0.2,0.1c0.1,0.1,0.2,0.1,0.4,0.2c0.2,0.1,0.3,0.1,0.4,0l2,0c0.2,0,0.4,0,0.5-0.1c0.1-0.1,0.2-0.1,0.2-0.2c0-0.1,0-0.2,0-0.3C15,11.2,14.9,11.2,14.9,11.1z"/>
</svg>
