<svg width="127" height="47" xmlns="http://www.w3.org/2000/svg"><path fill="#e22a1b" d="M56.6 30.1c-1.8 0-3.2.6-4.3 1.6l-.2-1.3h-2.3v16.3h2.8v-5.4c1 .9 2.4 1.4 4 1.4 3.8 0 6.5-2.6 6.5-6.3 0-3.7-2.7-6.3-6.5-6.3zm-.3 9.9c-2.2 0-3.8-1.5-3.8-3.6s1.6-3.6 3.8-3.6c2.2 0 3.8 1.5 3.8 3.6 0 2.2-1.5 3.6-3.8 3.6zm12-1.9v-7.7h-2.8v12h2.3l6.6-7.7v7.7h2.8v-12h-2.3l-6.6 7.7zm-52.8-12H3.9v1.7c0 6.3-.8 10-1.4 11.9H0v5.9h2.8v-3.2h12.4v3.2H18v-5.9h-2.5V26.1zm-3.1 13.6H5.6c.6-2.2 1.3-5.7 1.3-9.9v-1h5.5v10.9zm82.3.2h-4.4v-9.5h-2.8v9.5h-4.4v-9.5h-2.8v12h17.1v-12h-2.8v9.5zm20.8-9.5v12h2.8V33h6v9.5h2.8v-12h-11.6zm-85.5 6c1.1-.5 1.7-1.5 1.7-2.8 0-1.9-1.4-3.2-3.4-3.2h-7.9v12h8.2c2 0 3.4-1.3 3.4-3.2 0-1.3-.8-2.4-2-2.8zm-6.8-3.5h4.2c.8 0 1.3.5 1.3 1.2s-.5 1.2-1.3 1.2h-4.2v-2.4zm4.5 7.1h-4.5v-2.4h4.5c.8 0 1.3.5 1.3 1.2s-.5 1.2-1.3 1.2zm78.9-9.9c-3.9 0-6.7 2.6-6.7 6.3 0 3.7 2.8 6.3 6.7 6.3 3.9 0 6.7-2.6 6.7-6.3 0-3.7-2.8-6.3-6.7-6.3zm0 9.9c-2.2 0-3.8-1.5-3.8-3.6s1.6-3.6 3.8-3.6c2.2 0 3.8 1.5 3.8 3.6 0 2.2-1.6 3.6-3.8 3.6zm-65.9-9.9c-3.9 0-6.6 2.6-6.6 6.3 0 3.7 2.8 6.3 6.8 6.3 3 0 5.3-1.4 6.3-3.7h-3.3c-.7.7-1.7 1.1-3 1.1-1.9 0-3.4-1.1-3.8-2.7h10.3c0-.3.1-.7.1-1v-.6c-.5-3.3-3.2-5.7-6.8-5.7zM37 35.2c.5-1.5 1.8-2.4 3.6-2.4s3.2 1 3.7 2.4H37zM101.9.3h-11v16.3h10.9V.3zM85.4 4.5h-11v16.3h10.9V4.5zM69 .3H58.1v16.3H69V.3zM52.6 4.5h-11v16.3h10.9V4.5zM36.1.3h-11v16.3H36V.3z"/></svg>